<svg width="295" height="298" viewBox="0 0 295 298" fill="none" xmlns="http://www.w3.org/2000/svg">
<path fill-rule="evenodd" clip-rule="evenodd" d="M32.3702 249.509C35.335 276.873 57.6372 298 153.12 298H163.5H173.883C277.698 298 295 273.026 295 242.212V166.5V90.7876C295 72.0766 288.62 55.5185 260.362 45.3982" fill="#B7EAB8"/>
<path fill-rule="evenodd" clip-rule="evenodd" d="M32.3702 249.509C35.335 276.873 57.6372 298 153.12 298H163.5H173.883C277.698 298 295 273.026 295 242.212V166.5V90.7876C295 72.0766 288.62 55.5185 260.362 45.3982" fill="white" fill-opacity="0.3"/>
<path fill-rule="evenodd" clip-rule="evenodd" d="M131.5 0H121.12C17.3054 0 0 24.9745 0 55.7876V131.5V207.212C0 238.026 17.3054 263 121.12 263H131.5H141.883C245.698 263 263 238.026 263 207.212V131.5V55.7876C263 24.9745 245.698 0 141.883 0H131.5Z" fill="#89E0FE"/>
<path fill-rule="evenodd" clip-rule="evenodd" d="M131.5 0H121.12C17.3054 0 0 24.9745 0 55.7876V131.5V207.212C0 238.026 17.3054 263 121.12 263H131.5H141.883C245.698 263 263 238.026 263 207.212V131.5V55.7876C263 24.9745 245.698 0 141.883 0H131.5Z" fill="white" fill-opacity="0.3"/>
<path fill-rule="evenodd" clip-rule="evenodd" d="M66.2648 86.8281L82.8148 97.3221C85.8008 99.2161 86.6868 103.172 84.7928 106.16L59.5208 146.014C57.6268 149.002 53.6708 149.888 50.6848 147.994L24.0008 131.074" fill="white"/>
<path d="M66.2648 86.8281L82.8148 97.3221C85.8008 99.2161 86.6868 103.172 84.7928 106.16L59.5208 146.014C57.6268 149.002 53.6708 149.888 50.6848 147.994L24.0008 131.074" stroke="black" stroke-width="4" stroke-linecap="round" stroke-linejoin="round"/>
<path fill-rule="evenodd" clip-rule="evenodd" d="M53.2898 125.965C56.0878 127.739 56.9178 131.447 55.1438 134.245C53.3698 137.043 49.6618 137.873 46.8638 136.099C44.0658 134.325 43.2358 130.617 45.0098 127.819C46.7838 125.021 50.4918 124.191 53.2898 125.965Z" stroke="black" stroke-width="4" stroke-linecap="round" stroke-linejoin="round"/>
<path d="M64.165 116.283L73.805 101.081" stroke="black" stroke-width="4" stroke-linecap="round" stroke-linejoin="round"/>
<path fill-rule="evenodd" clip-rule="evenodd" d="M112.294 103.302L175.025 102.475L210 150.259C210 150.259 205.991 150.171 201.106 151.739C196.222 153.306 192.629 155.833 192.629 155.833" fill="#FFDBB9"/>
<path d="M112.294 103.302L175.025 102.475L210 150.259C210 150.259 205.991 150.171 201.106 151.739C196.222 153.306 192.629 155.833 192.629 155.833" stroke="black" stroke-width="4" stroke-linecap="round" stroke-linejoin="round"/>
<path fill-rule="evenodd" clip-rule="evenodd" d="M61.4472 142.978C61.4472 142.978 70.5112 151.094 71.7472 156.614L125.509 202.544C125.509 202.544 167.632 139.722 165.159 138.256C162.686 136.79 159.451 134.075 159.451 134.075C159.451 134.075 152.102 136.07 144.242 132.248C136.381 128.426 136.423 121.841 136.423 121.841L113.372 121.25L97.451 116.075L117.454 103.302L86.0806 104.129L62.2331 142.978" fill="#FFDBB9"/>
<path d="M61.4472 142.978C61.4472 142.978 70.5112 151.094 71.7472 156.614L125.509 202.544C125.509 202.544 167.632 139.722 165.159 138.256C162.686 136.79 159.451 134.075 159.451 134.075C159.451 134.075 152.102 136.07 144.242 132.248C136.381 128.426 136.423 121.841 136.423 121.841L113.372 121.25L97.451 116.075L117.454 103.302L86.0806 104.129L62.2331 142.978" stroke="black" stroke-width="4" stroke-linecap="round" stroke-linejoin="round"/>
<path fill-rule="evenodd" clip-rule="evenodd" d="M83.9838 167.193L80.1078 173.305C78.2218 176.281 74.2778 177.163 71.3018 175.277L68.5678 173.543C65.5918 171.655 64.7078 167.713 66.5958 164.737L70.4718 158.625C72.3578 155.649 76.3018 154.765 79.2778 156.653L82.0118 158.385C84.9878 160.273 85.8718 164.217 83.9838 167.193Z" fill="#FFDBB9" stroke="black" stroke-width="4" stroke-linecap="round" stroke-linejoin="round"/>
<path fill-rule="evenodd" clip-rule="evenodd" d="M99.3122 172.897L93.9482 181.357C91.8802 184.619 87.5602 185.585 84.3002 183.517L82.5962 182.437C79.3342 180.369 78.3682 176.051 80.4342 172.789L85.8002 164.329C87.8682 161.069 92.1862 160.101 95.4482 162.169L97.1522 163.249C100.412 165.317 101.38 169.637 99.3122 172.897Z" fill="#FFDBB9" stroke="black" stroke-width="4" stroke-linecap="round" stroke-linejoin="round"/>
<path fill-rule="evenodd" clip-rule="evenodd" d="M116.214 179.855L108.52 191.989C106.208 195.635 101.38 196.717 97.7338 194.405L97.4218 194.207C93.7778 191.895 92.6958 187.067 95.0078 183.421L102.702 171.287C105.014 167.641 109.842 166.559 113.488 168.871L113.798 169.069C117.444 171.381 118.526 176.209 116.214 179.855Z" fill="#FFDBB9" stroke="black" stroke-width="4" stroke-linecap="round" stroke-linejoin="round"/>
<path fill-rule="evenodd" clip-rule="evenodd" d="M117.454 103.302L97.451 116.075L97.947 137.703C97.947 137.703 112.983 140.133 113.105 121.265L136.423 121.841C136.423 121.841 140.131 138.401 159.451 134.075" fill="#FFDBB9"/>
<path d="M117.454 103.302L97.451 116.075L97.947 137.703C97.947 137.703 112.983 140.133 113.105 121.265L136.423 121.841C136.423 121.841 140.131 138.401 159.451 134.075" stroke="black" stroke-width="4" stroke-linecap="round" stroke-linejoin="round"/>
<path fill-rule="evenodd" clip-rule="evenodd" d="M150.43 152.037L187.59 175.599C192.254 178.557 198.432 177.173 201.39 172.509C204.348 167.845 202.964 161.667 198.3 158.709L159.451 134.511" fill="#FFDBB9"/>
<path d="M150.43 152.037L187.59 175.599C192.254 178.557 198.432 177.173 201.39 172.509C204.348 167.845 202.964 161.667 198.3 158.709L159.451 134.511" stroke="black" stroke-width="4" stroke-linecap="round" stroke-linejoin="round"/>
<path fill-rule="evenodd" clip-rule="evenodd" d="M139.72 168.928L166.746 186.064C171.41 189.022 177.588 187.638 180.546 182.974C183.502 178.31 182.12 172.132 177.456 169.174L152.12 153.108" fill="#FFDBB9"/>
<path d="M139.72 168.928L166.746 186.064C171.41 189.022 177.588 187.638 180.546 182.974V182.974C183.502 178.31 182.12 172.132 177.456 169.174L152.12 153.108" stroke="black" stroke-width="4" stroke-linecap="round" stroke-linejoin="round"/>
<path fill-rule="evenodd" clip-rule="evenodd" d="M130.081 184.129L149.505 196.445C153.703 199.107 159.263 197.863 161.925 193.665C164.587 189.467 163.343 183.905 159.145 181.245L139.721 168.927" fill="#FFDBB9"/>
<path d="M130.081 184.129L149.505 196.445C153.703 199.107 159.263 197.863 161.925 193.665V193.665C164.587 189.467 163.343 183.905 159.145 181.245L139.721 168.927" stroke="black" stroke-width="4" stroke-linecap="round" stroke-linejoin="round"/>
<path fill-rule="evenodd" clip-rule="evenodd" d="M125.509 202.544L128.043 204.15C132.241 206.812 137.801 205.568 140.463 201.37C143.125 197.172 141.879 191.61 137.681 188.948L131.769 185.2" fill="#FFDBB9"/>
<path d="M125.509 202.544L128.043 204.15C132.241 206.812 137.801 205.568 140.463 201.37V201.37C143.125 197.172 141.879 191.61 137.681 188.948L131.769 185.2" stroke="black" stroke-width="4" stroke-linecap="round" stroke-linejoin="round"/>
<path fill-rule="evenodd" clip-rule="evenodd" d="M199.287 84.8315L179.833 98.9775C177.177 100.91 176.589 104.628 178.521 107.284L207.991 147.812C209.921 150.466 213.639 151.054 216.295 149.122L242.221 130.272" fill="white"/>
<path d="M199.287 84.8315L179.833 98.9775C177.177 100.91 176.589 104.628 178.521 107.284L207.991 147.812C209.921 150.466 213.639 151.054 216.295 149.122L242.221 130.272" stroke="black" stroke-width="4" stroke-linecap="round" stroke-linejoin="round"/>
<path fill-rule="evenodd" clip-rule="evenodd" d="M218.694 125.122C220.642 127.802 220.05 131.554 217.37 133.504C214.69 135.452 210.938 134.86 208.988 132.18C207.04 129.5 207.632 125.746 210.312 123.798C212.992 121.85 216.746 122.442 218.694 125.122Z" stroke="black" stroke-width="4" stroke-linecap="round" stroke-linejoin="round"/>
<path d="M200.02 116.446L189.434 101.888" stroke="black" stroke-width="4" stroke-linecap="round" stroke-linejoin="round"/>
<path d="M84 217L88 221" stroke="black" stroke-width="4" stroke-linecap="round" stroke-linejoin="round"/>
<path d="M94 227L98 231" stroke="black" stroke-width="4" stroke-linecap="round" stroke-linejoin="round"/>
<path d="M98 217L94 221" stroke="black" stroke-width="4" stroke-linecap="round" stroke-linejoin="round"/>
<path d="M88 227L84 231" stroke="black" stroke-width="4" stroke-linecap="round" stroke-linejoin="round"/>
<path d="M224 185L228 189" stroke="black" stroke-width="4" stroke-linecap="round" stroke-linejoin="round"/>
<path d="M234 195L238 199" stroke="black" stroke-width="4" stroke-linecap="round" stroke-linejoin="round"/>
<path d="M238 185L234 189" stroke="black" stroke-width="4" stroke-linecap="round" stroke-linejoin="round"/>
<path d="M228 195L224 199" stroke="black" stroke-width="4" stroke-linecap="round" stroke-linejoin="round"/>
<path d="M150 69L154 73" stroke="black" stroke-width="4" stroke-linecap="round" stroke-linejoin="round"/>
<path d="M160 79L164 83" stroke="black" stroke-width="4" stroke-linecap="round" stroke-linejoin="round"/>
<path d="M164 69L160 73" stroke="black" stroke-width="4" stroke-linecap="round" stroke-linejoin="round"/>
<path d="M154 79L150 83" stroke="black" stroke-width="4" stroke-linecap="round" stroke-linejoin="round"/>
<g opacity="0.574949">
<path d="M96.5958 53.0174C98.6038 51.0094 101.38 49.7654 104.446 49.7654C110.576 49.7654 115.546 54.7354 115.546 60.8654C115.546 66.9974 110.576 71.9674 104.446 71.9674C98.3138 71.9674 93.3458 66.9974 93.3458 60.8654" stroke="#7ED321" stroke-width="4" stroke-linecap="round" stroke-linejoin="round"/>
<path d="M87.9948 44.417C92.2348 40.175 98.0948 37.553 104.567 37.553C117.509 37.553 128.001 48.045 128.001 60.987C128.001 73.929 117.509 84.421 104.567 84.421C91.6228 84.421 81.1328 73.929 81.1328 60.987C81.1328 57.539 81.8768 54.267 83.2128 51.319" stroke="#7ED321" stroke-width="4" stroke-linecap="round" stroke-linejoin="round"/>
<path d="M103.333 59.7533L80.5026 37.0273" stroke="#7ED321" stroke-width="4" stroke-linecap="round" stroke-linejoin="round"/>
<path fill-rule="evenodd" clip-rule="evenodd" d="M81.132 30.2133L80.274 36.6933L73.792 37.5533L64.58 28.3393L71.06 27.4813L71.918 20.9993L81.132 30.2133Z" stroke="#7ED321" stroke-width="4" stroke-linecap="round" stroke-linejoin="round"/>
<path d="M180 225H188" stroke="#7ED321" stroke-width="4" stroke-linecap="round" stroke-linejoin="round"/>
<path d="M194 225H214" stroke="#7ED321" stroke-width="4" stroke-linecap="round" stroke-linejoin="round"/>
<path d="M168 235H198" stroke="#7ED321" stroke-width="4" stroke-linecap="round" stroke-linejoin="round"/>
<path d="M206 235H214" stroke="#7ED321" stroke-width="4" stroke-linecap="round" stroke-linejoin="round"/>
<path d="M40 159V183" stroke="#7ED321" stroke-width="4" stroke-linecap="round" stroke-linejoin="round"/>
<path d="M40 189V197" stroke="#7ED321" stroke-width="4" stroke-linecap="round" stroke-linejoin="round"/>
<path d="M218 45V69" stroke="#FFFCC7" stroke-width="4" stroke-linecap="round" stroke-linejoin="round"/>
<path d="M218 75V83" stroke="#7ED321" stroke-width="4" stroke-linecap="round" stroke-linejoin="round"/>
</g>
<path fill-rule="evenodd" clip-rule="evenodd" d="M127.622 199.212L124.468 204.188C122.676 207.012 118.936 207.848 116.112 206.058L112.826 203.974C110.002 202.184 109.164 198.444 110.954 195.62L114.11 190.644C115.9 187.82 119.64 186.982 122.464 188.772L125.752 190.856C128.574 192.648 129.412 196.388 127.622 199.212Z" fill="#FFDBB9" stroke="black" stroke-width="4" stroke-linecap="round" stroke-linejoin="round"/>
</svg>
