<svg width="164" height="129" viewBox="0 0 164 129" fill="none" xmlns="http://www.w3.org/2000/svg">
<path d="M23.4783 67.4841C23.5023 67.5398 23.1898 67.7485 22.6269 67.961C22.064 68.1761 21.2367 68.3722 20.3082 68.3798C19.3809 68.3861 18.5549 68.2115 17.9856 68.0319C17.4113 67.8497 17.085 67.6714 17.1039 67.6132" stroke="#13C1FE" stroke-width="1.265" stroke-linecap="round" stroke-linejoin="round"/>
<path fill-rule="evenodd" clip-rule="evenodd" d="M21.6892 32.8132C18.3104 32.7474 15.096 33.285 12.3143 34.1895C11.6198 34.4159 10.9481 34.6626 10.3067 34.9232C9.66286 35.1863 9.05566 35.4659 8.45731 35.7454C7.63127 36.13 6.82293 36.4627 6.04243 36.7283C5.69835 36.846 5.3568 36.9497 5.02157 37.0395C3.93241 37.333 2.90776 37.4658 2.00708 37.4342C1.88058 37.4317 1.75787 37.4241 1.6377 37.414C1.66047 37.6037 1.6883 37.7973 1.72119 37.9895C1.77052 38.3665 1.86287 38.7422 1.93877 39.128C2.03744 39.5075 2.12346 39.8946 2.25122 40.2741C2.36128 40.6612 2.51181 41.0395 2.65476 41.4253C2.71168 41.5518 2.76608 41.6795 2.82174 41.806C2.928 42.0552 3.04058 42.3032 3.17088 42.5448C3.17341 42.5486 3.17467 42.5511 3.17594 42.5549C3.36063 42.9332 3.58706 43.2912 3.80464 43.658C3.98301 43.9135 4.15631 44.1741 4.34606 44.4259C4.4169 44.5207 4.48774 44.6131 4.56491 44.7042C5.33782 45.682 6.29796 46.5511 7.38712 47.2658C7.48706 47.3328 7.58826 47.3973 7.68946 47.4593C8.02721 47.6681 8.37762 47.8641 8.73561 48.0425C10.4004 48.8382 12.2004 49.2316 13.9386 49.4264C15.6843 49.6225 17.3869 49.6136 18.9998 49.4859C19.3338 49.4593 19.6639 49.4277 19.989 49.391C21.3283 49.2428 20.3945 45.3078 20.8391 41.4253C21.3319 37.1227 23.067 32.8371 21.6892 32.8132Z" stroke="#13C1FE" stroke-width="1.265" stroke-linecap="round" stroke-linejoin="round"/>
<path fill-rule="evenodd" clip-rule="evenodd" d="M3.55837 57.9632C3.61276 57.9417 3.67095 57.9316 3.73167 57.9316C4.03401 57.9316 4.43248 58.1833 4.85246 58.6526C5.35593 59.213 5.83284 60.0163 6.21487 60.9334V50.4516C6.21487 49.2359 6.64876 48.1202 7.36855 47.2524C6.28697 46.5402 5.33316 45.6762 4.56531 44.7047C4.48814 44.6136 4.41604 44.5213 4.34646 44.4264C4.15545 44.1747 3.98214 43.9141 3.80378 43.6586C3.70637 43.4928 3.60644 43.3284 3.50903 43.1639V57.991C3.52548 57.9822 3.54066 57.9695 3.55837 57.9632Z" stroke="#13C1FE" stroke-width="1.265" stroke-linecap="round" stroke-linejoin="round"/>
<path fill-rule="evenodd" clip-rule="evenodd" d="M6.382 65.286C6.27574 64.6902 6.22261 64.0501 6.22261 63.3657V62.9672V61.7781V60.9534C5.83932 60.0274 5.35988 59.2165 4.85262 58.6523C4.43264 58.183 4.03416 57.9313 3.73183 57.9313C3.66984 57.9313 3.61292 57.9427 3.55852 57.9629C3.24227 58.0869 3.06391 58.5941 3.07023 59.3531C3.07529 59.7681 3.13348 60.2298 3.23848 60.7181C3.34474 61.2051 3.49907 61.7162 3.69767 62.2285C4.09488 63.2544 4.61986 64.1576 5.16887 64.7711C5.65336 65.3125 6.10623 65.563 6.42248 65.4694C6.40983 65.4074 6.39339 65.348 6.382 65.286Z" stroke="#13C1FE" stroke-width="1.265" stroke-linecap="round" stroke-linejoin="round"/>
<path fill-rule="evenodd" clip-rule="evenodd" d="M19.9894 49.3917C19.6643 49.4284 19.3341 49.46 19.0002 49.4853C17.3873 49.6131 15.6833 49.6219 13.9389 49.4259C12.2008 49.2323 10.4007 48.8389 8.73597 48.0432C8.37797 47.8648 8.02757 47.6688 7.68981 47.4588C7.58861 47.3981 7.48741 47.3323 7.38748 47.2665C7.37736 47.2589 7.36724 47.2513 7.35712 47.245C6.64998 48.0622 6.22241 49.1286 6.22241 50.2936V61.7773V62.9664V63.3662C6.22241 64.0493 6.27554 64.6893 6.3818 65.2864C6.42102 65.4939 6.46403 65.6988 6.51716 65.8962C7.11424 68.2149 8.65248 69.8113 11.3115 70.7892C11.6518 70.9131 12.0098 71.0283 12.388 71.1333C14.0464 71.5975 16.0742 71.8682 18.4954 71.9682C18.6903 71.977 18.8876 71.9833 19.0887 71.9871C19.5732 72.0036 20.0716 72.0099 20.5852 72.0112C21.1001 72.0099 21.5985 72.0036 22.083 71.9871C22.2841 71.9833 22.4815 71.977 22.675 71.9682C23.9187 71.9169 22.7567 65.9927 22.083 60.1772C21.4444 54.6648 21.3628 49.239 19.9894 49.3917Z" stroke="#13C1FE" stroke-width="1.265" stroke-linecap="round" stroke-linejoin="round"/>
<path fill-rule="evenodd" clip-rule="evenodd" d="M20.5856 84.261L17.8684 79.3785L19.6154 72.261H21.5559L23.3028 79.3785L20.5856 84.261Z" stroke="#13C1FE" stroke-width="1.265" stroke-linecap="round" stroke-linejoin="round"/>
<path d="M5.21296 88.4081H3.887C2.53001 88.4081 1.47796 87.3621 1.47796 86.1271V84.6731H5.21296V88.4081Z" stroke="#13C1FE" stroke-width="1.265" stroke-linecap="round" stroke-linejoin="round"/>
<path fill-rule="evenodd" clip-rule="evenodd" d="M5.53046 76.9204C5.53046 76.1006 5.69618 75.3214 5.99598 74.6105C3.3496 74.8281 1.26868 77.0405 1.26868 79.7426V84.7356H5.53046V76.9204Z" stroke="#13C1FE" stroke-width="1.265" stroke-linecap="round" stroke-linejoin="round"/>
<path fill-rule="evenodd" clip-rule="evenodd" d="M35.9443 88.8875H37.3877C38.6261 88.8875 39.6293 87.8844 39.6293 86.6459V85.0406H35.9443V88.8875Z" stroke="#13C1FE" stroke-width="1.265" stroke-linecap="round" stroke-linejoin="round"/>
<path fill-rule="evenodd" clip-rule="evenodd" d="M22.6761 71.9688C22.4813 71.9763 22.2839 71.9839 22.0828 71.9877C21.5983 72.0029 21.0999 72.0105 20.585 72.0118C20.0714 72.0105 19.573 72.0029 19.0885 71.9877C18.8874 71.9839 18.6901 71.9763 18.4953 71.9688C16.074 71.8688 14.0475 71.5968 12.3878 71.1339C12.2133 71.0858 12.045 71.0352 11.8793 70.9821H11.4694C8.1893 70.9821 5.53027 73.6411 5.53027 76.92V88.8881C5.53027 88.8881 16.8217 89.4169 20.585 89.4169C24.3927 89.4169 35.8144 88.8881 35.8144 88.8881C35.8144 88.8881 34.3987 83.9132 31.4836 79.7502C28.4588 75.4305 23.909 71.9179 22.6761 71.9688Z" stroke="#13C1FE" stroke-width="1.265" stroke-linecap="round" stroke-linejoin="round"/>
<path fill-rule="evenodd" clip-rule="evenodd" d="M15.7342 97.6858H7.10184C6.32386 97.6858 5.69263 98.3158 5.69263 99.0937V101.515H17.1421V99.0937C17.1421 98.3158 16.5122 97.6858 15.7342 97.6858Z" stroke="#13C1FE" stroke-width="1.265" stroke-linecap="round" stroke-linejoin="round"/>
<path fill-rule="evenodd" clip-rule="evenodd" d="M25.5063 97.6856H34.1386C34.279 97.6856 34.4106 97.7122 34.5384 97.7502C35.2278 95.5933 35.7097 92.2803 35.7097 88.8876C35.7097 88.8876 24.512 89.4125 20.703 89.4163V89.4163C20.6765 89.4163 20.6474 89.4163 20.6208 89.4163C20.593 89.4163 20.5639 89.4163 20.5373 89.4163V89.4163C16.7284 89.4125 5.53064 88.8876 5.53064 88.8876C5.53064 92.2803 6.0126 95.5933 6.70203 97.7502C6.82979 97.7122 6.96135 97.6856 7.1005 97.6856H15.7341C16.1921 97.6856 16.5956 97.9083 16.8524 98.2473C17.3951 97.1543 18.8979 94.3865 20.5196 93.7313C20.5639 93.7211 20.6069 93.7123 20.655 93.7009C22.3007 94.3056 23.8377 97.1379 24.388 98.2473C24.6448 97.9083 25.0483 97.6856 25.5063 97.6856Z" stroke="#13C1FE" stroke-width="1.265" stroke-linecap="round" stroke-linejoin="round"/>
<path fill-rule="evenodd" clip-rule="evenodd" d="M25.5063 97.6858H34.1387C34.9167 97.6858 35.5479 98.3158 35.5479 99.0937V101.515H24.0984V99.0937C24.0984 98.3158 24.7284 97.6858 25.5063 97.6858Z" stroke="#13C1FE" stroke-width="1.265" stroke-linecap="round" stroke-linejoin="round"/>
<path fill-rule="evenodd" clip-rule="evenodd" d="M35.9448 85.0397H40.7278V82.7349H35.9448V85.0397Z" stroke="#13C1FE" stroke-width="1.265" stroke-linecap="round" stroke-linejoin="round"/>
<path fill-rule="evenodd" clip-rule="evenodd" d="M15.7294 60.5099C15.0602 60.5099 14.5162 59.966 14.5162 59.2968C14.5175 58.6263 15.0602 58.0824 15.7294 58.0824C16.3986 58.0824 16.9425 58.6263 16.9425 59.2968C16.9425 59.966 16.3986 60.5099 15.7294 60.5099Z" fill="#13C1FE"/>
<path fill-rule="evenodd" clip-rule="evenodd" d="M35.9448 85.0397H40.7278V82.7349H35.9448V85.0397Z" fill="#13C1FE"/>
<path fill-rule="evenodd" clip-rule="evenodd" d="M14.8114 54.4767C12.7596 54.4767 11.0265 55.8568 10.4864 57.7416C10.4067 58.0718 10.3636 58.4184 10.3636 58.7739C10.3624 61.2305 12.3548 63.2204 14.8114 63.2204C17.268 63.2204 19.2604 61.2305 19.2604 58.7739C19.2604 58.4285 19.2212 58.0946 19.1453 57.7733C18.6152 55.872 16.8746 54.4767 14.8114 54.4767ZM14.8114 55.7417C16.256 55.7417 17.5375 56.717 17.9144 58.0668C17.9676 58.2919 17.9954 58.5297 17.9954 58.7739C17.9954 60.5284 16.5672 61.9554 14.8114 61.9554C13.96 61.9554 13.1606 61.6252 12.5597 61.0243C11.9588 60.4234 11.6286 59.624 11.6286 58.7739C11.6286 58.5234 11.6577 58.2767 11.702 58.0908C12.0992 56.7069 13.3769 55.7417 14.8114 55.7417Z" fill="#13C1FE"/>
<path d="M106.088 67.4841C106.113 67.5398 105.8 67.7485 105.237 67.961C104.674 68.1761 103.847 68.3722 102.918 68.3798C101.991 68.3861 101.165 68.2115 100.596 68.0319C100.022 67.8497 99.6952 67.6714 99.7142 67.6132" stroke="#13C1FE" stroke-width="1.265" stroke-linecap="round" stroke-linejoin="round"/>
<path fill-rule="evenodd" clip-rule="evenodd" d="M120.35 58.4552C120.296 58.4337 120.238 58.4236 120.177 58.4236C119.875 58.4236 119.476 58.6753 119.056 59.1446C118.505 59.7582 117.985 60.6601 117.588 61.6873C117.577 61.7126 117.569 61.7366 117.558 61.7607V61.7784V62.9675V63.3659C117.558 64.049 117.507 64.6891 117.399 65.2862C117.365 65.4734 117.324 65.6556 117.279 65.834C117.33 65.8871 117.385 65.9276 117.447 65.9529C117.763 66.0781 118.237 65.8264 118.74 65.2634C119.289 64.6499 119.814 63.7467 120.21 62.7208C120.41 62.2085 120.564 61.6974 120.67 61.2091C120.775 60.7221 120.834 60.2604 120.839 59.8454C120.845 59.0864 120.667 58.5792 120.35 58.4552Z" stroke="#13C1FE" stroke-width="1.265" stroke-linecap="round" stroke-linejoin="round"/>
<path fill-rule="evenodd" clip-rule="evenodd" d="M121.013 39.1432C120.986 39.0243 120.955 38.9054 120.918 38.7865C120.731 38.2185 120.39 37.6518 119.853 37.2495C119.59 37.0484 119.283 36.8839 118.95 36.7751C118.783 36.7207 118.61 36.6828 118.435 36.6562C118.346 36.6461 118.259 36.6385 118.172 36.6372C118.127 36.6372 118.083 36.641 118.041 36.641C118.018 36.641 117.999 36.6461 117.978 36.6473C117.959 36.6473 117.894 36.6587 117.858 36.6676C117.814 36.641 117.748 36.6094 117.717 36.5828C117.706 36.5702 117.688 36.555 117.664 36.536L117.629 36.5082C117.625 36.5031 117.619 36.4993 117.602 36.5006C117.591 36.4993 117.585 36.4918 117.591 36.4778C117.457 36.3324 117.256 36.1755 117.049 36.0414C116.843 35.9048 116.622 35.777 116.394 35.6531C115.938 35.4076 115.453 35.1825 114.95 34.9687C113.94 34.5474 112.859 34.1768 111.716 33.8669C109.434 33.2483 106.921 32.8587 104.3 32.8131C100.921 32.7474 102.274 49.4276 102.599 49.391C105.423 49.0785 102.933 47.7324 105 46.9999C105 48.9999 104.5 49.4999 104.752 51.148C105.62 50.9456 106.528 50.6977 107.455 50.3903C109.79 49.6187 114.793 48.5624 116.234 47.5972C116.333 47.5301 116.43 47.4656 116.523 47.3998C116.588 47.3543 116.611 47.4251 116.75 47.6516C117.472 48.5206 117.559 49.6376 117.559 50.8571V61.4957C117.663 61.268 117.803 61.0492 117.959 60.8392C118.287 60.1675 118.664 59.5818 119.056 59.1441C119.476 58.6761 119.874 58.4243 120.177 58.4243C120.227 58.4243 120.274 58.4357 120.321 58.4496V44.2563V44.0349C120.38 43.8705 120.45 43.6694 120.527 43.4315C120.573 43.2873 120.621 43.1317 120.67 42.9622C120.76 42.6548 120.852 42.3032 120.941 41.9097C121.037 41.4796 121.101 40.9939 121.124 40.4651C121.139 40.0451 121.114 39.5986 121.013 39.1432Z" stroke="#13C1FE" stroke-width="1.265" stroke-linecap="round" stroke-linejoin="round"/>
<path fill-rule="evenodd" clip-rule="evenodd" d="M116.523 47.3993C116.429 47.4663 116.332 47.5308 116.234 47.5966C114.792 48.5618 110.79 49.6181 108.455 50.3897C107.528 50.6971 106.618 50.9463 105.752 51.1487C106.653 50.5264 105.503 48.3133 106.5 46.9999C104.433 47.7323 105.422 49.0779 102.6 49.3917C102.275 49.4283 101.944 49.46 101.61 49.4853C99.9975 49.613 101.498 71.9833 101.699 71.9871C102.183 72.0035 102.682 72.0099 103.195 72.0111C103.71 72.0099 104.209 72.0035 104.693 71.9871C104.894 71.9833 105.092 71.977 105.285 71.9681C107.708 71.8682 109.734 71.5975 111.394 71.1332C111.772 71.0282 112.13 70.9131 112.47 70.7891C115.129 69.8113 116.666 68.2149 117.265 65.8961C117.318 65.6988 117.361 65.4938 117.4 65.2864C117.506 64.6893 117.558 64.0492 117.558 63.3661V62.9664V61.7773V50.2936C117.558 49.1981 117.177 48.1899 116.545 47.3942C116.537 47.3955 116.531 47.3942 116.523 47.3993Z" stroke="#13C1FE" stroke-width="1.265" stroke-linecap="round" stroke-linejoin="round"/>
<path fill-rule="evenodd" clip-rule="evenodd" d="M103.196 86.2609L100.479 80.5646L102.226 72.2609H104.166L105.913 80.5646L103.196 86.2609Z" stroke="#13C1FE" stroke-width="1.265" stroke-linecap="round" stroke-linejoin="round"/>
<path fill-rule="evenodd" clip-rule="evenodd" d="M83.3572 85.0397H88.1401V82.7349H83.3572V85.0397Z" stroke="#13C1FE" stroke-width="1.265" stroke-linecap="round" stroke-linejoin="round"/>
<path d="M120.198 88.4081H118.872V84.6731H122.607V86.1271C122.607 87.3621 121.555 88.4081 120.198 88.4081Z" stroke="#13C1FE" stroke-width="1.265" stroke-linecap="round" stroke-linejoin="round"/>
<path fill-rule="evenodd" clip-rule="evenodd" d="M118.555 76.9204C118.555 76.1006 118.389 75.3214 118.089 74.6105C120.735 74.8281 122.816 77.0405 122.816 79.7426V84.7356H118.555V76.9204Z" stroke="#13C1FE" stroke-width="1.265" stroke-linecap="round" stroke-linejoin="round"/>
<path fill-rule="evenodd" clip-rule="evenodd" d="M112.487 70.9819H111.902C111.737 71.0351 111.568 71.0857 111.394 71.1337C109.734 71.5967 107.708 71.8687 105.285 71.9686C105.092 71.9762 104.894 71.9838 104.693 71.9876C104.209 72.0028 103.71 72.0104 103.195 72.0116C102.682 72.0104 102.183 72.0028 101.699 71.9876C101.498 71.9838 101.3 71.9762 101.106 71.9686C98.6844 71.8687 96.6579 71.5967 94.9982 71.1337C94.8236 71.0857 94.6554 71.0351 94.4897 70.9819H94.0798C90.7997 70.9819 95 80.9999 95 80.9999C95 80.9999 99.432 89.4168 103.195 89.4168C107.003 89.4168 118.425 88.888 118.425 88.888V76.9198C118.425 73.641 115.767 70.9819 112.487 70.9819Z" stroke="#13C1FE" stroke-width="1.265" stroke-linecap="round" stroke-linejoin="round"/>
<path fill-rule="evenodd" clip-rule="evenodd" d="M108.117 97.6858H116.75C117.527 97.6858 118.158 98.3158 118.158 99.0937V101.515H106.709V99.0937C106.709 98.3158 107.339 97.6858 108.117 97.6858Z" stroke="#13C1FE" stroke-width="1.265" stroke-linecap="round" stroke-linejoin="round"/>
<path fill-rule="evenodd" clip-rule="evenodd" d="M107.237 60.4331C106.568 60.4331 106.024 59.8891 106.024 59.2199C106.024 58.5495 106.568 58.0081 107.237 58.0081C107.907 58.0081 108.449 58.5495 108.449 59.2199C108.449 59.8891 107.907 60.4331 107.237 60.4331Z" fill="#13C1FE"/>
<path fill-rule="evenodd" clip-rule="evenodd" d="M83.3572 85.0397H88.1401V82.7349H83.3572V85.0397Z" fill="#13C1FE"/>
<path fill-rule="evenodd" clip-rule="evenodd" d="M108.156 54.4014C106.092 54.4014 104.352 55.7954 103.822 57.6967C103.744 58.018 103.707 58.352 103.707 58.696C103.707 61.1539 105.699 63.145 108.156 63.145C110.612 63.145 112.605 61.1539 112.605 58.696C112.605 58.352 112.565 58.018 112.489 57.6967C111.959 55.7954 110.219 54.4014 108.156 54.4014ZM108.156 55.6664C109.601 55.6664 110.882 56.6404 111.259 57.9902C111.312 58.2141 111.34 58.4519 111.34 58.696C111.34 60.4519 109.911 61.88 108.156 61.88C106.4 61.88 104.972 60.4519 104.972 58.696C104.972 58.4519 104.998 58.2141 105.041 58.0357C105.429 56.6404 106.711 55.6664 108.156 55.6664Z" fill="#13C1FE"/>
<path fill-rule="evenodd" clip-rule="evenodd" d="M68.1527 55.6964C65.2642 55.6964 62.8273 57.6481 62.0852 60.3099C61.9772 60.7597 61.9241 61.2272 61.9241 61.709C61.9241 65.15 64.7134 67.9376 68.1527 67.9376C71.592 67.9376 74.3813 65.15 74.3813 61.709C74.3813 61.2272 74.3282 60.7597 74.2201 60.3099C73.4781 57.6481 71.0412 55.6964 68.1527 55.6964ZM68.1527 57.4674C70.1769 57.4674 71.9692 58.8311 72.4969 60.7225C72.5713 61.0342 72.6103 61.3672 72.6103 61.709C72.6103 64.1671 70.6108 66.1666 68.1527 66.1666C65.6945 66.1666 63.6951 64.1671 63.6951 61.709C63.6951 61.3672 63.7323 61.0342 63.7925 60.7845C64.3362 58.8311 66.1302 57.4674 68.1527 57.4674Z" fill="#13C1FE"/>
<path fill-rule="evenodd" clip-rule="evenodd" d="M66.8673 64.1407C65.9305 64.1407 65.1689 63.3792 65.1689 62.4423C65.1689 61.5037 65.9305 60.7457 66.8673 60.7457C67.8042 60.7457 68.564 61.5037 68.564 62.4423C68.564 63.3792 67.8042 64.1407 66.8673 64.1407Z" fill="#13C1FE"/>
<path fill-rule="evenodd" clip-rule="evenodd" d="M53.125 55.8018C50.2525 55.8018 47.8262 57.7339 47.07 60.3727C46.9584 60.8349 46.8982 61.3202 46.8982 61.8178C46.8964 65.2571 49.6857 68.0429 53.125 68.0429C56.5643 68.0429 59.3536 65.2571 59.3536 61.8178C59.3536 61.3344 59.2987 60.8668 59.1925 60.417C58.4504 57.7552 56.0135 55.8018 53.125 55.8018ZM53.125 57.5728C55.1475 57.5728 56.9415 58.9382 57.4693 60.8279C57.5437 61.1431 57.5826 61.476 57.5826 61.8178C57.5826 64.2742 55.5832 66.2719 53.125 66.2719C51.9331 66.2719 50.8139 65.8097 49.9727 64.9685C49.1314 64.1272 48.6692 63.008 48.6692 61.8178C48.6692 61.4672 48.7099 61.1218 48.7719 60.8615C49.328 58.924 51.1167 57.5728 53.125 57.5728Z" fill="#13C1FE"/>
<path d="M65.2588 72.8623C65.2924 72.9402 64.855 73.2324 64.0669 73.53C63.2788 73.831 62.1206 74.1055 60.8207 74.1162C59.5225 74.125 58.3661 73.8806 57.5691 73.6291C56.7651 73.3741 56.3082 73.1244 56.3347 73.0429" stroke="#13C1FE" stroke-width="2" stroke-linecap="round" stroke-linejoin="round"/>
<path fill-rule="evenodd" clip-rule="evenodd" d="M54.4103 64.2484C53.4734 64.2484 52.7119 63.4869 52.7119 62.55C52.7137 61.6114 53.4734 60.8499 54.4103 60.8499C55.3472 60.8499 56.1087 61.6114 56.1087 62.55C56.1087 63.4869 55.3472 64.2484 54.4103 64.2484Z" fill="#13C1FE"/>
<path fill-rule="evenodd" clip-rule="evenodd" d="M85.2252 60.2216C85.149 60.1915 85.0693 60.1774 84.9825 60.1774C84.5593 60.1774 84.0014 60.5298 83.4134 61.1868C82.6413 62.0458 81.9134 63.3085 81.3573 64.7465C81.3431 64.782 81.3307 64.8156 81.3166 64.8493V64.8741V66.5388V67.0967C81.3166 68.053 81.244 68.9491 81.0934 69.785C81.0456 70.0472 80.9889 70.3022 80.9252 70.5519C80.996 70.6263 81.0739 70.6829 81.1607 70.7184C81.6035 70.8937 82.2658 70.5413 82.9707 69.7532C83.7393 68.8942 84.4743 67.6297 85.0286 66.1935C85.3084 65.4762 85.5245 64.7607 85.6732 64.0771C85.8202 63.3953 85.9017 62.7489 85.9088 62.168C85.9176 61.1054 85.6679 60.3952 85.2252 60.2216Z" stroke="#13C1FE" stroke-width="2" stroke-linecap="round" stroke-linejoin="round"/>
<path fill-rule="evenodd" clip-rule="evenodd" d="M86.1526 33.185C86.1154 33.0185 86.0711 32.852 86.0198 32.6856C85.7576 31.8904 85.2812 31.097 84.5286 30.5338C84.1602 30.2522 83.7316 30.022 83.2641 29.8697C83.0303 29.7935 82.7895 29.7404 82.5433 29.7032C82.4193 29.689 82.2971 29.6784 82.1749 29.6766C82.1129 29.6766 82.0509 29.6819 81.9925 29.6819C81.9606 29.6819 81.9341 29.689 81.9039 29.6908C81.8774 29.6908 81.7871 29.7067 81.7357 29.7191C81.6737 29.6819 81.5816 29.6377 81.5391 29.6005C81.5232 29.5828 81.4984 29.5615 81.4647 29.5349L81.4152 29.496C81.4098 29.4889 81.401 29.4836 81.378 29.4854C81.362 29.4836 81.3532 29.473 81.362 29.4535C81.1743 29.2498 80.8927 29.0302 80.604 28.8425C80.3154 28.6512 80.0054 28.4723 79.6867 28.2988C79.0473 27.9552 78.369 27.64 77.6642 27.3407C76.2509 26.7509 74.7367 26.232 73.1375 25.7981C69.9426 24.9321 66.4236 24.3866 62.7541 24.3229C58.0238 24.2308 53.5237 24.9835 49.6292 26.2497C48.657 26.5667 47.7166 26.9121 46.8187 27.2769C45.9172 27.6453 45.0672 28.0367 44.2295 28.4281C43.073 28.9665 41.9413 29.4322 40.8486 29.8041C40.3669 29.9688 39.8887 30.1141 39.4194 30.2398C37.8946 30.6507 36.4601 30.8366 35.1991 30.7924C35.022 30.7888 34.8503 30.7782 34.682 30.764C34.7139 31.0297 34.7528 31.3006 34.7989 31.5698C34.868 32.0976 34.9972 32.6236 35.1035 33.1637C35.2416 33.695 35.3621 34.2369 35.5409 34.7682C35.695 35.3102 35.9058 35.8397 36.1059 36.3799C36.1856 36.557 36.2617 36.7358 36.3397 36.9129C36.4884 37.2618 36.646 37.6089 36.8285 37.9472C36.832 37.9525 36.8338 37.956 36.8355 37.9614C37.0941 38.4909 37.4111 38.9921 37.7157 39.5057C37.9654 39.8634 38.2081 40.2282 38.4737 40.5807C38.5729 40.7135 38.6721 40.8428 38.7801 40.9703C39.8622 42.3393 41.2064 43.556 42.7312 44.5566C42.8711 44.6504 43.0128 44.7408 43.1562 44.8275C43.6273 45.1197 44.1179 45.3942 44.6191 45.644C46.9497 46.7579 49.4699 47.3087 51.9032 47.5814C54.3472 47.8559 56.731 47.8435 58.989 47.6647C59.4565 47.6275 59.9188 47.5832 60.3739 47.5318C64.3268 47.0944 67.8369 46.1699 70.7307 45.1445C71.6853 44.8063 73.8087 43.9845 74.6305 43.6339C74.9439 43.285 74.3471 43.9668 74.1434 44.2006C73.9628 44.4078 73.7786 44.6186 73.5926 44.8293C73.2526 45.1817 72.9055 45.5412 72.5531 45.9061C72.1971 46.2656 71.811 46.6074 71.4303 46.9634C70.1551 48.1145 68.8481 49.1204 67.5872 49.9918C68.8021 49.7084 70.0737 49.3613 71.3718 48.9309C74.6411 47.8506 77.4446 46.3718 79.4617 45.0206C79.6017 44.9267 79.7362 44.8364 79.8673 44.7443C79.9576 44.6805 79.9895 44.7797 80.1843 45.0967C81.1956 46.3134 81.3177 47.8772 81.3177 49.5844V64.4785C81.463 64.1598 81.6596 63.8534 81.8774 63.5594C82.3361 62.619 82.8638 61.799 83.4128 61.1863C84.0008 60.531 84.5587 60.1786 84.9819 60.1786C85.0528 60.1786 85.1183 60.1945 85.1838 60.214V40.3434V40.0334C85.2671 39.8032 85.3645 39.5216 85.4725 39.1887C85.5363 38.9868 85.6036 38.7689 85.6726 38.5316C85.7984 38.1013 85.9277 37.6089 86.0516 37.0582C86.1862 36.456 86.2766 35.7759 86.3084 35.0357C86.3297 34.4477 86.2943 33.8225 86.1526 33.185Z" stroke="#13C1FE" stroke-width="2" stroke-linecap="round" stroke-linejoin="round"/>
<path fill-rule="evenodd" clip-rule="evenodd" d="M37.3709 59.5329C37.4471 59.5028 37.5268 59.4886 37.6136 59.4886C38.0368 59.4886 38.5947 59.841 39.1827 60.4981C39.8875 61.2826 40.5552 62.4072 41.09 63.6912V49.0167C41.09 47.313 41.6975 45.7527 42.7052 44.5378C41.191 43.5408 39.8557 42.3312 38.7807 40.971C38.6726 40.8435 38.5717 40.7142 38.4743 40.5814C38.2069 40.229 37.9642 39.8642 37.7145 39.5064C37.5782 39.2744 37.4382 39.0442 37.3019 38.814V59.5719C37.3249 59.5595 37.3462 59.5417 37.3709 59.5329Z" stroke="#13C1FE" stroke-width="2" stroke-linecap="round" stroke-linejoin="round"/>
<path fill-rule="evenodd" clip-rule="evenodd" d="M41.324 69.7846C41.1752 68.9505 41.1008 68.0544 41.1008 67.0963V66.5384V64.8736V63.719C40.5642 62.4226 39.893 61.2874 39.1828 60.4975C38.5949 59.8405 38.037 59.488 37.6137 59.488C37.5269 59.488 37.4472 59.504 37.3711 59.5323C36.9283 59.7059 36.6786 60.416 36.6875 61.4786C36.6946 62.0595 36.776 62.7059 36.923 63.3896C37.0718 64.0714 37.2879 64.7869 37.5659 65.5041C38.122 66.9422 38.857 68.2049 39.6256 69.0638C40.3039 69.8218 40.9379 70.1725 41.3806 70.0414C41.3629 69.9546 41.3399 69.8714 41.324 69.7846Z" stroke="#13C1FE" stroke-width="2" stroke-linecap="round" stroke-linejoin="round"/>
<path fill-rule="evenodd" clip-rule="evenodd" d="M79.8677 44.7436C79.7348 44.8374 79.6002 44.9278 79.4621 45.0198C77.4432 46.3711 74.6414 47.8499 71.3722 48.9302C70.074 49.3606 68.8007 49.7095 67.5875 49.9928C68.8485 49.1215 70.1555 48.1156 71.4306 46.9644C71.8096 46.6067 72.1975 46.2666 72.5517 45.9071C72.9041 45.5423 73.253 45.181 73.593 44.8286C73.779 44.6196 73.9631 44.4089 74.1438 44.1999C74.3474 43.9679 74.9443 43.2843 74.6308 43.6349C73.8073 43.9838 71.6856 44.8073 70.7311 45.1456C67.8373 46.171 64.3254 47.0937 60.3743 47.5329C59.9191 47.5843 59.4569 47.6285 58.9893 47.664C56.7313 47.8428 54.3458 47.8552 51.9036 47.5807C49.4702 47.3098 46.9501 46.759 44.6194 45.645C44.1182 45.3953 43.6277 45.1208 43.1548 44.8268C43.0131 44.7418 42.8715 44.6497 42.7316 44.5576C42.7174 44.547 42.7032 44.5364 42.6891 44.5275C41.6991 45.6716 41.1005 47.1645 41.1005 48.7956V64.8728V66.5375V67.0971C41.1005 68.0535 41.1748 68.9496 41.3236 69.7855C41.3785 70.076 41.4387 70.3629 41.5131 70.6391C42.349 73.8854 44.5026 76.1204 48.2252 77.4894C48.7016 77.6629 49.2028 77.8241 49.7323 77.9711C52.0541 78.621 54.893 79 58.2827 79.1399C58.5554 79.1523 58.8317 79.1612 59.1133 79.1665C59.7916 79.1895 60.4894 79.1984 61.2084 79.2001C61.9292 79.1984 62.627 79.1895 63.3053 79.1665C63.5869 79.1612 63.8631 79.1523 64.1341 79.1399C67.5256 79 70.3627 78.621 72.6862 77.9711C73.2158 77.8241 73.717 77.6629 74.1934 77.4894C77.916 76.1204 80.0678 73.8854 80.9055 70.6391C80.9798 70.3629 81.0401 70.076 81.095 69.7855C81.2437 68.9496 81.3163 68.0535 81.3163 67.0971V66.5375V64.8728V48.7956C81.3163 47.2619 80.7833 45.8504 79.8978 44.7365C79.8871 44.7383 79.8783 44.7365 79.8677 44.7436Z" stroke="#13C1FE" stroke-width="2" stroke-linecap="round" stroke-linejoin="round"/>
<path d="M56.1094 79.2008L59.8497 84.7246H62.5682L67.0187 78.9493" stroke="#13C1FE" stroke-width="2" stroke-linecap="round" stroke-linejoin="round"/>
<path fill-rule="evenodd" clip-rule="evenodd" d="M57.405 93.2807L59.8508 84.725H62.5675L65.0132 93.2807H57.405Z" stroke="#13C1FE" stroke-width="2" stroke-linecap="round" stroke-linejoin="round"/>
<path fill-rule="evenodd" clip-rule="evenodd" d="M40.1318 105.827H38.1111C36.3773 105.827 34.9729 104.423 34.9729 102.689V100.442H40.1318V105.827Z" stroke="#13C1FE" stroke-width="2" stroke-linecap="round" stroke-linejoin="round"/>
<path fill-rule="evenodd" clip-rule="evenodd" d="M40.1318 90.1036C40.1318 88.5903 40.3638 87.1517 40.7835 85.8392C37.0786 86.2409 34.1653 90.3255 34.1653 95.3138V100.839H40.1318V90.1036Z" fill="white" stroke="#13C1FE" stroke-width="2" stroke-linecap="round" stroke-linejoin="round"/>
<path fill-rule="evenodd" clip-rule="evenodd" d="M82.7112 105.827H84.7319C86.4657 105.827 87.8701 104.423 87.8701 102.689V100.442H82.7112V105.827Z" stroke="#13C1FE" stroke-width="2" stroke-linecap="round" stroke-linejoin="round"/>
<path fill-rule="evenodd" clip-rule="evenodd" d="M82.7112 92.0731C82.7112 90.9255 82.4792 89.8345 82.0594 88.8392C85.7644 89.1438 88.6777 92.2413 88.6777 96.0242V100.214H82.7112V92.0731Z" fill="white" stroke="#13C1FE" stroke-width="2" stroke-linecap="round" stroke-linejoin="round"/>
<path fill-rule="evenodd" clip-rule="evenodd" d="M54.417 118.145H42.3299C41.2425 118.145 40.5 119.026 40.5 120.116V122.997H56.5V120.116C56.5 119.026 55.5062 118.145 54.417 118.145Z" stroke="#13C1FE" stroke-width="2" stroke-linecap="round" stroke-linejoin="round"/>
<path fill-rule="evenodd" clip-rule="evenodd" d="M68.0982 118.144H80.1835C80.3801 118.144 80.5643 118.182 80.7431 118.235C81.7083 115.215 82.3831 110.577 82.3831 105.827C82.3831 105.827 66.7062 106.562 61.3737 106.567V106.567C61.3365 106.567 61.2958 106.567 61.2586 106.567C61.2196 106.567 61.1789 106.567 61.1417 106.567V106.567C55.8092 106.562 40.1323 105.827 40.1323 105.827C40.1323 110.577 40.8071 115.215 41.7723 118.235C41.9511 118.182 42.1353 118.144 42.3301 118.144H54.4172C55.0583 118.144 55.6233 118.456 55.9828 118.931C56.7425 117.401 58.8465 113.526 61.1169 112.608C61.1789 112.594 61.2391 112.582 61.3064 112.566C63.6105 113.412 65.7622 117.378 66.5326 118.931C66.8921 118.456 67.4571 118.144 68.0982 118.144Z" stroke="#13C1FE" stroke-width="2" stroke-linecap="round" stroke-linejoin="round"/>
<path fill-rule="evenodd" clip-rule="evenodd" d="M68.098 118.145H80.1833C81.2725 118.145 81.5 118.911 81.5 120V122.997H66.5048L66.5048 120C66.5048 118.911 67.0089 118.145 68.098 118.145Z" stroke="#13C1FE" stroke-width="2" stroke-linecap="round" stroke-linejoin="round"/>
<path fill-rule="evenodd" clip-rule="evenodd" d="M74.2165 77.7592H73.3983C73.1663 77.8335 72.9308 77.9044 72.6864 77.9717C70.3628 78.6199 67.5257 79.0006 64.1342 79.1405C63.8632 79.1512 63.587 79.1618 63.3054 79.1671C62.6271 79.1884 61.9293 79.199 61.2085 79.2007C60.4895 79.199 59.7917 79.1884 59.1134 79.1671C58.8318 79.1618 58.5555 79.1512 58.2828 79.1405C54.8931 79.0006 52.056 78.6199 49.7324 77.9717C49.488 77.9044 49.2525 77.8335 49.0205 77.7592H48.4449C43.8545 77.7592 40.1318 81.4818 40.1318 86.0722C40.1318 86.0722 54.0985 91.9374 60.7971 91.9374C68.231 91.9374 82.5296 86.0722 82.5296 86.0722C82.5296 81.4818 78.8087 77.7592 74.2165 77.7592Z" stroke="#13C1FE" stroke-width="2" stroke-linecap="round" stroke-linejoin="round"/>
<path d="M64 53H71.0021" stroke="#13C1FE" stroke-width="2" stroke-linecap="round" stroke-linejoin="round"/>
<path d="M50 53H57" stroke="#13C1FE" stroke-width="2" stroke-linecap="round" stroke-linejoin="round"/>
<path fill-rule="evenodd" clip-rule="evenodd" d="M28.3409 18.3206C45.4088 0.0371947 74.0707 -0.859254 92.2328 16.3227C109.283 32.4536 111.109 58.8689 97.148 77.1699L101.91 81.6738C104.006 80.1086 106.976 80.224 108.947 82.087L140.866 112.284C143.08 114.379 143.188 117.884 141.107 120.113L136.26 125.304C134.18 127.534 130.698 127.642 128.484 125.547L96.5646 95.3503C94.5952 93.4873 94.2963 90.5095 95.7181 88.3054L90.9575 83.8015C73.6787 98.9649 47.3761 98.7702 30.3256 82.6393C12.1635 65.4573 11.273 36.604 28.3409 18.3206ZM32.288 23.0302C17.7337 38.5168 18.4936 62.9574 33.9802 77.5117C49.4668 92.0659 73.9074 91.3071 88.4616 75.8194C103.016 60.3328 102.257 35.8922 86.7694 21.338C71.2828 6.78372 46.8422 7.54357 32.288 23.0302Z" fill="white"/>
<path d="M92.2328 16.3227L92.9201 15.5962L92.9201 15.5962L92.2328 16.3227ZM28.3409 18.3206L27.6099 17.6382L28.3409 18.3206ZM97.148 77.1699L96.3529 76.5633L95.8074 77.2784L96.4608 77.8964L97.148 77.1699ZM101.91 81.6738L101.222 82.4003L101.834 82.9784L102.508 82.4751L101.91 81.6738ZM108.947 82.087L109.634 81.3605L109.634 81.3603L108.947 82.087ZM140.866 112.284L141.554 111.557L141.554 111.557L140.866 112.284ZM141.107 120.113L140.376 119.43L140.376 119.43L141.107 120.113ZM136.26 125.304L135.529 124.622L135.529 124.622L136.26 125.304ZM128.484 125.547L129.172 124.821L129.172 124.821L128.484 125.547ZM96.5646 95.3503L97.2518 94.6238L97.2518 94.6238L96.5646 95.3503ZM95.7181 88.3054L96.5584 88.8475L97.0085 88.1497L96.4053 87.579L95.7181 88.3054ZM90.9575 83.8015L91.6447 83.0751L90.9828 82.4489L90.2979 83.0499L90.9575 83.8015ZM30.3256 82.6393L31.0128 81.9128L31.0128 81.9128L30.3256 82.6393ZM33.9802 77.5117L33.2953 78.2403L33.9802 77.5117ZM32.288 23.0302L33.0167 23.715L32.288 23.0302ZM88.4616 75.8194L87.7329 75.1346L87.7329 75.1346L88.4616 75.8194ZM86.7694 21.338L86.0846 22.0667L86.0846 22.0667L86.7694 21.338ZM92.9201 15.5962C74.3546 -1.9673 45.0562 -1.05051 27.6099 17.6382L29.0719 19.003C45.7615 1.1249 73.7868 0.248795 91.5456 17.0491L92.9201 15.5962ZM97.943 77.7764C112.211 59.0741 110.347 32.083 92.9201 15.5962L91.5456 17.0491C108.22 32.8242 110.008 58.6638 96.3529 76.5633L97.943 77.7764ZM102.597 80.9473L97.8352 76.4434L96.4608 77.8964L101.222 82.4003L102.597 80.9473ZM109.634 81.3603C107.303 79.157 103.79 79.0219 101.311 80.8725L102.508 82.4751C104.222 81.1953 106.649 81.2909 108.26 82.8136L109.634 81.3603ZM141.554 111.557L109.634 81.3605L108.259 82.8134L140.179 113.01L141.554 111.557ZM141.838 120.795C144.294 118.165 144.167 114.03 141.554 111.557L140.179 113.01C141.994 114.727 142.082 117.603 140.376 119.43L141.838 120.795ZM136.991 125.986L141.838 120.795L140.376 119.43L135.529 124.622L136.991 125.986ZM127.797 126.274C130.414 128.75 134.532 128.622 136.992 125.986L135.529 124.622C133.827 126.446 130.982 126.534 129.172 124.821L127.797 126.274ZM95.8773 96.0767L127.797 126.274L129.172 124.821L97.2518 94.6238L95.8773 96.0767ZM94.8777 87.7634C93.201 90.3627 93.5503 93.8754 95.8773 96.0767L97.2518 94.6238C95.6401 93.0992 95.3917 90.6562 96.5584 88.8475L94.8777 87.7634ZM90.2702 84.528L95.0308 89.0319L96.4053 87.579L91.6447 83.0751L90.2702 84.528ZM29.6383 83.3657C47.068 99.8553 73.9544 100.053 91.6171 84.5532L90.2979 83.0499C73.403 97.8764 47.6842 97.685 31.0128 81.9128L29.6383 83.3657ZM27.6099 17.6382C10.1671 36.3232 11.0766 65.8057 29.6384 83.3657L31.0128 81.9128C13.2503 65.1089 12.3788 36.8849 29.0719 19.003L27.6099 17.6382ZM34.665 76.783C19.5808 62.6069 18.8407 38.7992 33.0167 23.715L31.5593 22.3454C16.6267 38.2345 17.4063 63.3079 33.2953 78.2403L34.665 76.783ZM87.7329 75.1346C73.5569 90.2198 49.7492 90.959 34.665 76.783L33.2953 78.2403C49.1844 93.1728 74.2579 92.3944 89.1903 76.5042L87.7329 75.1346ZM86.0846 22.0667C101.17 36.2428 101.909 60.0504 87.7329 75.1346L89.1903 76.5043C104.123 60.6152 103.344 35.5417 87.4542 20.6093L86.0846 22.0667ZM33.0167 23.715C47.1927 8.63081 71.0005 7.89069 86.0846 22.0667L87.4542 20.6093C71.5651 5.67676 46.4917 6.45634 31.5593 22.3454L33.0167 23.715Z" fill="#7ED321"/>
</svg>
