<svg width="166" height="130" viewBox="0 0 166 130" fill="none" xmlns="http://www.w3.org/2000/svg">
<path fill-rule="evenodd" clip-rule="evenodd" d="M70.7716 70.7958C69.5805 64.0715 63.1863 59 39.2241 59H36.5H33.7768C6.5402 59 2 65.5522 2 73.6363V93.5V113.364C2 121.448 6.5402 128 33.7768 128H36.5H39.2241C66.4607 128 71 121.448 71 113.364V93.5V83.6894L70.7716 70.7958Z" stroke="#13C1FE" stroke-width="2.33898"/>
<path fill-rule="evenodd" clip-rule="evenodd" d="M63.9831 77.6764C63.9831 71.2365 60.367 66.017 38.6701 66.017H36.5H34.3307C12.6337 66.017 9.01697 71.2365 9.01697 77.6764V93.5V109.324C9.01697 115.763 12.6337 120.983 34.3307 120.983H36.5H38.6701C60.367 120.983 63.9831 115.763 63.9831 109.324V93.5V77.6764Z" stroke="#13C1FE" stroke-width="2.33898"/>
<path d="M55.7966 82.3898L35.2912 105.831C34.0884 107.216 31.9533 107.331 30.6038 106.084L17.2034 93.6246" stroke="#7ED321" stroke-width="2.33898"/>
<path fill-rule="evenodd" clip-rule="evenodd" d="M118.838 55.0304L62.7602 23.2968L46.6771 50.6367L102.705 83.1006L118.838 55.0304Z" fill="white" stroke="#7ED321" stroke-width="2" stroke-linecap="round"/>
<path d="M80.1152 61.2816C75.1947 59.6106 72.3547 54.3499 73.7687 49.5311C75.1841 44.7136 80.3175 42.163 85.238 43.8339C90.1572 45.5063 92.9984 50.7656 91.5844 55.5844C90.169 60.4019 85.0356 62.9526 80.1152 61.2816" stroke="#7ED321" stroke-width="2"/>
<path fill-rule="evenodd" clip-rule="evenodd" d="M100.213 67.0981C98.37 66.5145 97.3504 64.5477 97.934 62.7052C98.5181 60.8631 100.484 59.8431 102.327 60.4268C104.169 61.011 105.189 62.9772 104.605 64.8197C104.021 66.6618 102.055 67.6818 100.213 67.0981Z" fill="#7ED321"/>
<path fill-rule="evenodd" clip-rule="evenodd" d="M61.66 44.3232C59.8174 43.7396 58.7977 41.7728 59.3814 39.9303C59.9655 38.0882 61.9317 37.0682 63.7742 37.6518C65.6163 38.2361 66.6365 40.2023 66.0529 42.0448C65.4687 43.8869 63.5026 44.9069 61.66 44.3232Z" fill="#7ED321"/>
<path fill-rule="evenodd" clip-rule="evenodd" d="M107.01 73.9505L61.852 27.9893L38.8561 49.8369L83.7655 96.4867L107.01 73.9505Z" fill="white" stroke="#7ED321" stroke-width="2" stroke-linecap="round"/>
<path d="M68.0646 69.2863C63.7954 66.3238 62.5154 60.4841 65.2029 56.2417C67.8914 52.001 73.529 50.9641 77.7982 53.9266C82.0659 56.89 83.3475 62.7288 80.66 66.9712C77.9715 71.2119 72.3339 72.2488 68.0646 69.2863" stroke="#7ED321" stroke-width="2"/>
<path fill-rule="evenodd" clip-rule="evenodd" d="M85.7803 80.417C84.17 79.3481 83.732 77.1765 84.8008 75.5662C85.8701 73.9565 88.0412 73.5179 89.6516 74.5868C91.2613 75.6562 91.6999 77.8274 90.631 79.4377C89.5618 81.0474 87.3906 81.486 85.7803 80.417Z" fill="#7ED321"/>
<path fill-rule="evenodd" clip-rule="evenodd" d="M54.9988 47.8979C53.3885 46.8289 52.9505 44.6573 54.0193 43.047C55.0886 41.4373 57.2597 40.9987 58.8701 42.0677C60.4798 43.137 60.9184 45.3082 59.8496 46.9185C58.7803 48.5282 56.6091 48.9668 54.9988 47.8979Z" fill="#7ED321"/>
<path fill-rule="evenodd" clip-rule="evenodd" d="M88.895 88.1949L61.1607 30.0357L32.3047 43.2063L59.5797 101.936L88.895 88.1949Z" fill="white" stroke="#7ED321" stroke-width="2" stroke-linecap="round"/>
<path d="M53.5899 71.1054C50.5177 66.9144 51.2087 60.9761 55.131 57.8398C59.0536 54.7054 64.7217 55.5604 67.7938 59.7515C70.8642 63.9429 70.175 69.8807 66.2527 73.0171C62.3301 76.1515 56.662 75.2964 53.5899 71.1054" stroke="#7ED321" stroke-width="2"/>
<path fill-rule="evenodd" clip-rule="evenodd" d="M66.7164 87.3975C65.5418 85.8625 65.8346 83.6666 67.3695 82.492C68.9046 81.3181 71.1003 81.6103 72.2748 83.1453C73.4487 84.6804 73.1566 86.8761 71.6217 88.0507C70.0866 89.2246 67.8909 88.9324 66.7164 87.3975Z" fill="#7ED321"/>
<path fill-rule="evenodd" clip-rule="evenodd" d="M48.1992 46.6283C47.0246 45.0933 47.3174 42.8974 48.8523 41.7228C50.3874 40.5489 52.583 40.8411 53.7576 42.3761C54.9315 43.9112 54.6394 46.107 53.1044 47.2816C51.5694 48.4554 49.3737 48.1633 48.1992 46.6283Z" fill="#7ED321"/>
<path fill-rule="evenodd" clip-rule="evenodd" d="M46.6453 36.6473L55.5777 32.3617L57.2664 30.0609C52.6195 25.5582 38.301 23.5639 31.4941 20.6891C23.7109 17.4027 26.5401 14.5682 23.347 7.98693L10.7946 24.7464C10.7946 24.7464 17.9208 37.4 22.7571 42.7325C27.5951 48.0647 31.8572 50.8611 35.0376 51.8045C38.2177 52.7462 58.8386 62.0001 61.6218 63.0005C64.4032 64.0013 67.9579 56.4253 60.6314 53.4742C53.3031 50.5235 46.252 40.5139 46.252 40.5139L46.6453 36.6473Z" fill="white"/>
<path d="M35.3215 50.8457C36.1813 51.1003 38.1254 51.8815 40.528 52.8882C42.958 53.9064 45.9255 55.1847 48.876 56.4629C49.9772 56.94 51.0736 57.4159 52.1378 57.8779C56.8092 59.9057 60.8592 61.6638 61.96 62.0595L61.9603 62.0596C62.143 62.1253 62.4808 62.1092 62.9267 61.6446C63.3614 61.1916 63.7418 60.4399 63.8665 59.5483C63.9893 58.6706 63.8573 57.7065 63.3371 56.8163C62.8201 55.9316 61.8781 55.0495 60.2602 54.4028C57.2266 53.1903 54.2784 50.7928 51.8661 48.4207C49.4382 46.0333 47.4771 43.5953 46.4238 42.2133C45.7134 41.2813 45.4065 40.1382 45.4833 39.0046L45.5672 37.7662C45.6415 36.6694 46.3098 35.7011 47.3089 35.2425L54.696 31.8519C54.9224 31.748 55.1273 31.6028 55.3004 31.4236L56.162 30.5313C52.0021 27.9114 47.8674 27.3312 43.8889 27.1479C43.0146 27.1076 42.1121 27.0862 41.2136 27.0649C39.9735 27.0355 38.7408 27.0063 37.5999 26.9278C35.5731 26.7883 33.5858 26.4867 31.736 25.7055M35.3215 50.8457L35.0376 51.8046M35.3215 50.8457C35.3217 50.8458 35.3218 50.8458 35.322 50.8459L35.0376 51.8046M35.3215 50.8457C32.3483 49.9636 28.2216 47.2039 23.0207 43.2172C22.2669 42.6394 21.3776 42.1535 20.5301 41.6904C20.3209 41.5761 20.1142 41.4631 19.9128 41.3506C18.8557 40.7598 17.8408 40.1304 16.9445 39.2459C14.9594 37.287 12.4138 34.8038 10.3657 32.8115C9.34137 31.8151 8.44103 30.941 7.79675 30.316C7.6164 30.141 7.45611 29.9856 7.31877 29.8524L15.5177 15.3277C17.8674 15.7365 19.8476 17.243 22.2308 19.2462C22.4364 19.419 22.6445 19.5951 22.8556 19.7736C25.2462 21.7956 28.0073 24.1311 31.736 25.7055M35.0376 51.8046C36.9213 52.3624 44.9246 55.8368 51.7152 58.7846C56.3884 60.8134 60.4872 62.5927 61.6218 63.0005L35.0376 51.8046ZM31.736 25.7055L32.125 24.7843M31.736 25.7055L32.125 24.7843M32.125 24.7843C28.543 23.2718 25.8922 21.0309 23.4915 19.0015C20.6758 16.6213 18.2042 14.532 14.9779 14.2497L32.125 24.7843Z" stroke="#13C1FE" stroke-width="2" stroke-linejoin="round"/>
<mask id="path-18-inside-1" fill="white">
<path fill-rule="evenodd" clip-rule="evenodd" d="M5.0693 0.0255264L22.332 18.7983L7.06068 37.8174L2.00005 30.4999"/>
</mask>
<path fill-rule="evenodd" clip-rule="evenodd" d="M5.0693 0.0255264L22.332 18.7983L7.06068 37.8174L2.00005 30.4999" fill="white"/>
<path d="M22.332 18.7983L24.5403 16.7676L26.2858 18.6658L24.6713 20.6766L22.332 18.7983ZM7.06068 37.8174L9.39992 39.6957L6.88136 42.8323L4.59326 39.5238L7.06068 37.8174ZM7.27757 -2.00512L24.5403 16.7676L20.1238 20.8289L2.86102 2.05617L7.27757 -2.00512ZM24.6713 20.6766L9.39992 39.6957L4.72144 35.9391L19.9928 16.92L24.6713 20.6766ZM4.59326 39.5238L-0.467365 32.2063L4.46747 28.7935L9.5281 36.111L4.59326 39.5238Z" fill="#13C1FE" mask="url(#path-18-inside-1)"/>
<path d="M18.6402 13.674L2.72284 38.1512L6.97494 41.0462L9.87438 38.5817L12.7785 36.1133L11.4603 39.6895L10.0382 43.5477L13.5345 46.8251L29.3518 23.0129L18.6402 13.674Z" fill="white" stroke="#13C1FE" stroke-width="2"/>
</svg>
