<svg width="164" height="131" viewBox="0 0 164 131" fill="none" xmlns="http://www.w3.org/2000/svg">
<path fill-rule="evenodd" clip-rule="evenodd" d="M116.539 124.406L124.576 121.638C133.453 118.582 134.673 98.7475 127.301 77.3374C119.929 55.9274 106.757 41.0491 97.8793 44.1058L89.8424 46.8732" fill="white"/>
<path d="M116.539 124.406L124.576 121.638C133.453 118.582 134.673 98.7475 127.301 77.3374C119.929 55.9274 106.757 41.0491 97.8793 44.1058L89.8424 46.8732" stroke="#13C1FE" stroke-width="2"/>
<path d="M116.428 81.0815C120.218 92.0887 121.848 102.625 121.451 110.743C121.252 114.805 120.548 118.208 119.395 120.75C118.243 123.289 116.686 124.884 114.811 125.53C112.935 126.175 110.727 125.877 108.256 124.585C105.782 123.292 103.132 121.044 100.475 117.966C95.164 111.813 89.9614 102.507 86.1713 91.4997C82.3813 80.4926 80.7513 69.9559 81.1485 61.8383C81.3473 57.7766 82.0511 54.3736 83.2043 51.8315C84.3564 49.292 85.913 47.6974 87.7885 47.0516C89.6641 46.4058 91.8724 46.704 94.3437 47.9959C96.8176 49.2891 99.4673 51.5374 102.125 54.6157C107.435 60.7679 112.638 70.0744 116.428 81.0815Z" fill="white" stroke="#13C1FE" stroke-width="2"/>
<path fill-rule="evenodd" clip-rule="evenodd" d="M104.933 53.8398L109.66 52.212L111.257 53.7775L106.529 55.4053L104.933 53.8398Z" fill="#13C1FE"/>
<path fill-rule="evenodd" clip-rule="evenodd" d="M98.8716 48.5236L103.599 46.8957L105.196 48.4612L100.468 50.089L98.8716 48.5236Z" fill="#13C1FE"/>
<path fill-rule="evenodd" clip-rule="evenodd" d="M111.676 64.2094L116.404 62.5815L117.528 64.3098L112.8 65.9376L111.676 64.2094Z" fill="#13C1FE"/>
<path fill-rule="evenodd" clip-rule="evenodd" d="M124.141 109.625L128.869 107.998L129.163 105.781L124.435 107.409L124.141 109.625Z" fill="#13C1FE"/>
<path fill-rule="evenodd" clip-rule="evenodd" d="M122.638 117.546L127.366 115.919L127.66 113.702L122.932 115.33L122.638 117.546Z" fill="#13C1FE"/>
<path fill-rule="evenodd" clip-rule="evenodd" d="M123.071 97.3026L127.799 95.6748L127.62 93.621L122.893 95.2488L123.071 97.3026Z" fill="#13C1FE"/>
<rect x="117.831" y="79.0121" width="7" height="2" transform="rotate(-19 117.831 79.0121)" fill="#13C1FE"/>
<path d="M33 114H32V115V124V125H33H34V126H35H98H99V125H100H101V124V116V115H100H99V114H98H33Z" fill="white" stroke="#13C1FE" stroke-width="2"/>
<path d="M33 54H32V55V65V66H33H98H99V65H100H101V64V56V55H100H99V54H98H33Z" fill="white" stroke="#13C1FE" stroke-width="2"/>
<path d="M42 102H41V103V113V114H42H107H108V113H109H110V112V104V103H109H108V102H107H42Z" fill="white" stroke="#13C1FE" stroke-width="2"/>
<path d="M42 90H41V91V101V102H42H107H108V101H109H110V100V92V91H109H108V90H107H42Z" fill="white" stroke="#13C1FE" stroke-width="2"/>
<path d="M42 78H41V79V89V90H42H107H108V89H109H110V88V80V79H109H108V78H107H42Z" fill="white" stroke="#13C1FE" stroke-width="2"/>
<path d="M39 66H38V67V77V78H39H104H105V77H106H107V76V68V67H106H105V66H104H39Z" fill="white" stroke="#13C1FE" stroke-width="2"/>
<rect x="93" y="57" width="2" height="6" fill="#13C1FE"/>
<rect x="97" y="69" width="2" height="6" fill="#13C1FE"/>
<rect x="100" y="81" width="2" height="6" fill="#13C1FE"/>
<rect x="89" y="81" width="2" height="6" fill="#13C1FE"/>
<rect x="89" y="93" width="2" height="6" fill="#13C1FE"/>
<rect x="100" y="93" width="2" height="6" fill="#13C1FE"/>
<rect x="100" y="105" width="2" height="6" fill="#13C1FE"/>
<rect x="89" y="105" width="2" height="6" fill="#13C1FE"/>
<rect x="75" y="105" width="2" height="6" fill="#13C1FE"/>
<rect x="89" y="117" width="2" height="6" fill="#13C1FE"/>
<rect x="78" y="117" width="2" height="6" fill="#13C1FE"/>
<rect x="63" y="117" width="2" height="6" fill="#13C1FE"/>
<path fill-rule="evenodd" clip-rule="evenodd" d="M53 2C41.0353 13.3731 35.0529 22.8507 3.147 19.0597C-4.82948 66.4478 11.1235 102.463 23.0882 115.731C41.0353 121.418 53 129 53 129C53 129 64.9647 121.418 82.9118 115.731C94.8765 102.463 110.829 66.4478 102.853 19.0597C70.9471 22.8507 64.9647 13.3731 53 2Z" fill="white" stroke="#7ED321" stroke-width="2"/>
<path d="M54.4909 13.2767L53.8003 12.6174L53.1097 13.2767C52.1644 14.1793 51.2719 15.0587 50.4085 15.9093C46.6925 19.5703 43.5173 22.6985 39.0079 24.8513C33.5028 27.4795 25.9218 28.6674 12.8857 27.1115L11.9385 26.9985L11.7809 27.9392C5.17022 67.3891 18.366 97.48 28.4363 108.698L28.618 108.9L28.8771 108.983C36.2035 111.315 42.3098 114.035 46.5825 116.172C48.7183 117.241 50.3943 118.162 51.5337 118.815C52.1033 119.141 52.5387 119.4 52.8302 119.577C52.976 119.665 53.0857 119.733 53.1583 119.778C53.1946 119.8 53.2216 119.817 53.2392 119.828L53.2584 119.84L53.2627 119.843L53.2633 119.844L53.2634 119.844L53.2635 119.844L53.8003 120.185L54.3371 119.844L54.3372 119.844L54.3373 119.844L54.338 119.843L54.3422 119.84L54.3615 119.828C54.379 119.817 54.406 119.8 54.4423 119.778C54.5149 119.733 54.6247 119.665 54.7704 119.577C55.0619 119.4 55.4973 119.141 56.067 118.815C57.2063 118.162 58.8823 117.241 61.0181 116.172C65.2908 114.035 71.3972 111.315 78.7235 108.983L78.9827 108.9L79.1644 108.698C84.2449 103.038 90.2902 90.4329 94.13 75.5377C97.9768 60.6149 99.6628 43.1953 95.8497 27.8631L95.6085 26.8931L94.6384 27.1339C76.9827 31.5165 64.2743 22.6181 54.4909 13.2767Z" stroke="#13C1FE" stroke-width="2"/>
<mask id="mask0" mask-type="alpha" maskUnits="userSpaceOnUse" x="27" y="53" width="44" height="24">
<path fill-rule="evenodd" clip-rule="evenodd" d="M44.3257 53.3569H27.4939V75.7156L64.7012 76.2873C64.7012 76.2873 70.1861 73.1941 70.1861 71.2389C70.1861 69.2836 64.7012 68.8569 64.7012 68.8569V69.1414C64.7012 69.1414 66.7485 70.9517 59.5933 66.7594C52.438 62.5672 43.9836 53.8634 43.9836 53.8634L44.3257 53.3569Z" fill="white"/>
</mask>
<g mask="url(#mask0)">
<path d="M28.6704 67.3311C28.6704 71.7161 37.879 74.6629 48.6794 74.6629C59.4799 74.6629 68.2353 71.7161 68.2353 67.3311" stroke="#13C1FE" stroke-width="2.22581"/>
<mask id="path-33-inside-1" fill="white">
<path fill-rule="evenodd" clip-rule="evenodd" d="M27.4773 61.7415H29.8636V68.7285L27.4773 67.3311V61.7415ZM67.5633 61.7415H69.9496V67.3311H67.5633V61.7415ZM38.4665 67.3311H36.0802V72.9208H38.4665V67.3311ZM47.5286 68.3667H49.9149V74.3182H47.5286V68.3667ZM61.3633 65.9337H58.977V72.9208H61.3633V65.9337Z"/>
</mask>
<path fill-rule="evenodd" clip-rule="evenodd" d="M27.4773 61.7415H29.8636V68.7285L27.4773 67.3311V61.7415ZM67.5633 61.7415H69.9496V67.3311H67.5633V61.7415ZM38.4665 67.3311H36.0802V72.9208H38.4665V67.3311ZM47.5286 68.3667H49.9149V74.3182H47.5286V68.3667ZM61.3633 65.9337H58.977V72.9208H61.3633V65.9337Z" fill="#D8D8D8"/>
<path d="M29.8636 61.7415H32.9037V58.7013H29.8636V61.7415ZM27.4773 61.7415V58.7013H24.4372V61.7415H27.4773ZM29.8636 68.7285L28.3273 71.3519L32.9037 74.0319V68.7285H29.8636ZM27.4773 67.3311H24.4372V69.0739L25.941 69.9545L27.4773 67.3311ZM69.9496 61.7415H72.9897V58.7013H69.9496V61.7415ZM67.5633 61.7415V58.7013H64.5232V61.7415H67.5633ZM69.9496 67.3311V70.3713H72.9897V67.3311H69.9496ZM67.5633 67.3311H64.5232V70.3713H67.5633V67.3311ZM36.0802 67.3311V64.291H33.0401V67.3311H36.0802ZM38.4665 67.3311H41.5066V64.291H38.4665V67.3311ZM36.0802 72.9208H33.0401V75.9609H36.0802V72.9208ZM38.4665 72.9208V75.9609H41.5066V72.9208H38.4665ZM49.9149 68.3667H52.955V65.3266H49.9149V68.3667ZM47.5286 68.3667V65.3266H44.4885V68.3667H47.5286ZM49.9149 74.3182V77.3583H52.955V74.3182H49.9149ZM47.5286 74.3182H44.4885V77.3583H47.5286V74.3182ZM58.977 65.9337V62.8936H55.9369V65.9337H58.977ZM61.3633 65.9337H64.4034V62.8936H61.3633V65.9337ZM58.977 72.9208H55.9369V75.9609H58.977V72.9208ZM61.3633 72.9208V75.9609H64.4034V72.9208H61.3633ZM29.8636 58.7013H27.4773V64.7816H29.8636V58.7013ZM32.9037 68.7285V61.7415H26.8235V68.7285H32.9037ZM25.941 69.9545L28.3273 71.3519L31.3999 66.1051L29.0136 64.7077L25.941 69.9545ZM24.4372 61.7415V67.3311H30.5174V61.7415H24.4372ZM69.9496 58.7013H67.5633V64.7816H69.9496V58.7013ZM72.9897 67.3311V61.7415H66.9095V67.3311H72.9897ZM67.5633 70.3713H69.9496V64.291H67.5633V70.3713ZM64.5232 61.7415V67.3311H70.6035V61.7415H64.5232ZM36.0802 70.3713H38.4665V64.291H36.0802V70.3713ZM39.1203 72.9208V67.3311H33.0401V72.9208H39.1203ZM38.4665 69.8807H36.0802V75.9609H38.4665V69.8807ZM35.4263 67.3311V72.9208H41.5066V67.3311H35.4263ZM49.9149 65.3266H47.5286V71.4068H49.9149V65.3266ZM52.955 74.3182V68.3667H46.8748V74.3182H52.955ZM47.5286 77.3583H49.9149V71.2781H47.5286V77.3583ZM44.4885 68.3667V74.3182H50.5687V68.3667H44.4885ZM58.977 68.9738H61.3633V62.8936H58.977V68.9738ZM62.0171 72.9208V65.9337H55.9369V72.9208H62.0171ZM61.3633 69.8807H58.977V75.9609H61.3633V69.8807ZM58.3232 65.9337V72.9208H64.4034V65.9337H58.3232Z" fill="#13C1FE" mask="url(#path-33-inside-1)"/>
<path d="M69.3125 61.7414C69.3125 62.4843 68.9315 63.312 67.9835 64.1875C67.0344 65.064 65.5997 65.9045 63.7334 66.6335C60.0076 68.0888 54.7847 69.013 48.9597 69.013C43.1347 69.013 37.9118 68.0888 34.186 66.6335C32.3196 65.9045 30.885 65.064 29.9358 64.1875C28.9878 63.312 28.6068 62.4843 28.6068 61.7414C28.6068 60.9985 28.9878 60.1709 29.9358 59.2954C30.885 58.4189 32.3196 57.5783 34.186 56.8493C37.9118 55.394 43.1347 54.4698 48.9597 54.4698C54.7847 54.4698 60.0076 55.394 63.7334 56.8493C65.5997 57.5783 67.0344 58.4189 67.9835 59.2954C68.9315 60.1709 69.3125 60.9985 69.3125 61.7414Z" stroke="#13C1FE" stroke-width="2.22581"/>
</g>
<mask id="mask1" mask-type="alpha" maskUnits="userSpaceOnUse" x="27" y="70" width="45" height="20">
<path fill-rule="evenodd" clip-rule="evenodd" d="M27.4939 70.5027L49.4943 74.4453L71.4947 70.8247V89.8804H27.4939V70.5027Z" fill="white"/>
</mask>
<g mask="url(#mask1)">
<path d="M28.687 80.035C28.687 84.4201 37.5704 87.3669 48.7329 87.3669C59.8953 87.3669 69.2373 84.4201 69.2373 80.035" stroke="#13C1FE" stroke-width="2.22581"/>
<mask id="path-38-inside-2" fill="white">
<path fill-rule="evenodd" clip-rule="evenodd" d="M27.4939 74.4453L29.8802 76.0656V80.2316L27.4939 80.035V74.4453ZM68.0442 74.4453H70.4305V80.035H68.0442V74.4453ZM38.4665 80.035H36.0802V85.6247H38.4665V80.035ZM47.5286 81.0705H49.9149V87.0221H47.5286V81.0705ZM61.3633 79.6731H58.977V85.6247H61.3633V79.6731Z"/>
</mask>
<path fill-rule="evenodd" clip-rule="evenodd" d="M27.4939 74.4453L29.8802 76.0656V80.2316L27.4939 80.035V74.4453ZM68.0442 74.4453H70.4305V80.035H68.0442V74.4453ZM38.4665 80.035H36.0802V85.6247H38.4665V80.035ZM47.5286 81.0705H49.9149V87.0221H47.5286V81.0705ZM61.3633 79.6731H58.977V85.6247H61.3633V79.6731Z" fill="#D8D8D8"/>
<path d="M29.8802 76.0656H32.9203V74.4551L31.5879 73.5504L29.8802 76.0656ZM27.4939 74.4453L29.2016 71.9302L24.4538 68.7064V74.4453H27.4939ZM29.8802 80.2316L29.6305 83.2615L32.9203 83.5326V80.2316H29.8802ZM27.4939 80.035H24.4538V82.8349L27.2442 83.0648L27.4939 80.035ZM70.4305 74.4453H73.4706V71.4052H70.4305V74.4453ZM68.0442 74.4453V71.4052H65.0041V74.4453H68.0442ZM70.4305 80.035V83.0751H73.4706V80.035H70.4305ZM68.0442 80.035H65.0041V83.0751H68.0442V80.035ZM36.0802 80.035V76.9949H33.0401V80.035H36.0802ZM38.4665 80.035H41.5066V76.9949H38.4665V80.035ZM36.0802 85.6247H33.0401V88.6648H36.0802V85.6247ZM38.4665 85.6247V88.6648H41.5066V85.6247H38.4665ZM49.9149 81.0705H52.955V78.0304H49.9149V81.0705ZM47.5286 81.0705V78.0304H44.4885V81.0705H47.5286ZM49.9149 87.0221V90.0622H52.955V87.0221H49.9149ZM47.5286 87.0221H44.4885V90.0622H47.5286V87.0221ZM58.977 79.6731V76.633H55.9369V79.6731H58.977ZM61.3633 79.6731H64.4035V76.633H61.3633V79.6731ZM58.977 85.6247H55.9369V88.6648H58.977V85.6247ZM61.3633 85.6247V88.6648H64.4035V85.6247H61.3633ZM31.5879 73.5504L29.2016 71.9302L25.7861 76.9605L28.1724 78.5807L31.5879 73.5504ZM32.9203 80.2316V76.0656H26.8401V80.2316H32.9203ZM27.2442 83.0648L29.6305 83.2615L30.1299 77.2018L27.7436 77.0051L27.2442 83.0648ZM24.4538 74.4453V80.035H30.534V74.4453H24.4538ZM70.4305 71.4052H68.0442V77.4854H70.4305V71.4052ZM73.4706 80.035V74.4453H67.3904V80.035H73.4706ZM68.0442 83.0751H70.4305V76.9949H68.0442V83.0751ZM65.0041 74.4453V80.035H71.0843V74.4453H65.0041ZM36.0802 83.0751H38.4665V76.9949H36.0802V83.0751ZM39.1203 85.6247V80.035H33.0401V85.6247H39.1203ZM38.4665 82.5845H36.0802V88.6648H38.4665V82.5845ZM35.4264 80.035V85.6247H41.5066V80.035H35.4264ZM49.9149 78.0304H47.5286V84.1107H49.9149V78.0304ZM52.955 87.0221V81.0705H46.8748V87.0221H52.955ZM47.5286 90.0622H49.9149V83.9819H47.5286V90.0622ZM44.4885 81.0705V87.0221H50.5687V81.0705H44.4885ZM58.977 82.7132H61.3633V76.633H58.977V82.7132ZM62.0172 85.6247V79.6731H55.9369V85.6247H62.0172ZM61.3633 82.5845H58.977V88.6648H61.3633V82.5845ZM58.3232 79.6731V85.6247H64.4035V79.6731H58.3232Z" fill="#13C1FE" mask="url(#path-38-inside-2)"/>
<path d="M69.3125 74.4453C69.3125 75.1882 68.9315 76.0159 67.9835 76.8913C67.0344 77.7679 65.5997 78.6084 63.7334 79.3374C60.0076 80.7927 54.7847 81.7169 48.9597 81.7169C43.1347 81.7169 37.9118 80.7927 34.186 79.3374C32.3196 78.6084 30.885 77.7679 29.9358 76.8913C28.9878 76.0159 28.6068 75.1882 28.6068 74.4453C28.6068 73.7024 28.9878 72.8747 29.9358 71.9993C30.885 71.1227 32.3196 70.2822 34.186 69.5532C37.9118 68.0979 43.1347 67.1737 48.9597 67.1737C54.7847 67.1737 60.0076 68.0979 63.7334 69.5532C65.5997 70.2822 67.0344 71.1227 67.9835 71.9993C68.9315 72.8747 69.3125 73.7024 69.3125 74.4453Z" stroke="#13C1FE" stroke-width="2.22581"/>
</g>
<path d="M44.0142 49.5668C41.7667 54.1634 49.3364 62.5023 60.3484 67.6373C71.3605 72.7723 82.7391 73.113 84.8918 68.4965" stroke="#7ED321" stroke-width="2.22581"/>
<mask id="path-42-inside-3" fill="white">
<path fill-rule="evenodd" clip-rule="evenodd" d="M86.4122 62.4357L88.5678 63.4409L85.9693 69.0134L83.1892 69.329L86.4122 62.4357ZM45.4287 43.7194L47.5914 44.7279L44.2817 51.7569L42.8302 49.292L45.4287 43.7194ZM53.5939 54.3112L51.4311 53.3027L48.0756 60.4986L50.2383 61.5071L53.5939 54.3112ZM61.2565 60.2128L63.3249 61.1773L60.1657 67.7062L58.0972 66.7417L61.2565 60.2128ZM76.5298 65.0064L74.3671 63.9979L71.0116 71.1938L73.1743 72.2023L76.5298 65.0064Z"/>
</mask>
<path fill-rule="evenodd" clip-rule="evenodd" d="M86.4122 62.4357L88.5678 63.4409L85.9693 69.0134L83.1892 69.329L86.4122 62.4357ZM45.4287 43.7194L47.5914 44.7279L44.2817 51.7569L42.8302 49.292L45.4287 43.7194ZM53.5939 54.3112L51.4311 53.3027L48.0756 60.4986L50.2383 61.5071L53.5939 54.3112ZM61.2565 60.2128L63.3249 61.1773L60.1657 67.7062L58.0972 66.7417L61.2565 60.2128ZM76.5298 65.0064L74.3671 63.9979L71.0116 71.1938L73.1743 72.2023L76.5298 65.0064Z" fill="#D8D8D8"/>
<path d="M88.5678 63.4409L91.3231 64.7257L92.6079 61.9704L89.8526 60.6856L88.5678 63.4409ZM86.4122 62.4357L87.697 59.6804L84.9446 58.3969L83.6582 61.1481L86.4122 62.4357ZM85.9693 69.0134L86.3121 72.0342L88.0047 71.8421L88.7246 70.2983L85.9693 69.0134ZM83.1892 69.329L80.4352 68.0413L78.1344 72.9623L83.532 72.3497L83.1892 69.329ZM47.5914 44.7279L50.3419 46.023L51.6418 43.2622L48.8762 41.9726L47.5914 44.7279ZM45.4287 43.7194L46.7135 40.9641L43.9582 39.6793L42.6734 42.4346L45.4287 43.7194ZM44.2817 51.7569L41.662 53.2995L44.5813 58.257L47.0321 53.052L44.2817 51.7569ZM42.8302 49.292L40.0749 48.0072L39.399 49.4565L40.2105 50.8346L42.8302 49.292ZM51.4311 53.3027L52.716 50.5474L49.9607 49.2626L48.6758 52.0179L51.4311 53.3027ZM53.5939 54.3112L56.3491 55.596L57.634 52.8407L54.8787 51.5559L53.5939 54.3112ZM48.0756 60.4986L45.3203 59.2138L44.0355 61.9691L46.7908 63.2539L48.0756 60.4986ZM50.2383 61.5071L48.9535 64.2624L51.7088 65.5472L52.9936 62.7919L50.2383 61.5071ZM63.3249 61.1773L66.0615 62.5015L67.4048 59.7254L64.6097 58.422L63.3249 61.1773ZM61.2565 60.2128L62.5413 57.4575L59.8252 56.1909L58.5199 58.8886L61.2565 60.2128ZM60.1657 67.7062L58.8809 70.4615L61.5969 71.728L62.9023 69.0304L60.1657 67.7062ZM58.0972 66.7417L55.3607 65.4175L54.0173 68.1936L56.8124 69.497L58.0972 66.7417ZM74.3671 63.9979L75.6519 61.2426L72.8966 59.9578L71.6118 62.7131L74.3671 63.9979ZM76.5298 65.0064L79.2851 66.2912L80.5699 63.5359L77.8146 62.2511L76.5298 65.0064ZM71.0116 71.1938L68.2563 69.909L66.9715 72.6643L69.7267 73.9491L71.0116 71.1938ZM73.1743 72.2023L71.8895 74.9576L74.6447 76.2424L75.9296 73.4871L73.1743 72.2023ZM89.8526 60.6856L87.697 59.6804L85.1274 65.191L87.283 66.1962L89.8526 60.6856ZM88.7246 70.2983L91.3231 64.7257L85.8125 62.1561L83.214 67.7286L88.7246 70.2983ZM83.532 72.3497L86.3121 72.0342L85.6265 65.9927L82.8463 66.3082L83.532 72.3497ZM83.6582 61.1481L80.4352 68.0413L85.9431 70.6166L89.1662 63.7234L83.6582 61.1481ZM48.8762 41.9726L46.7135 40.9641L44.1439 46.4747L46.3066 47.4832L48.8762 41.9726ZM47.0321 53.052L50.3419 46.023L44.8409 43.4328L41.5312 50.4618L47.0321 53.052ZM40.2105 50.8346L41.662 53.2995L46.9013 50.2143L45.4498 47.7493L40.2105 50.8346ZM42.6734 42.4346L40.0749 48.0072L45.5854 50.5768L48.184 45.0042L42.6734 42.4346ZM50.1463 56.058L52.309 57.0664L54.8787 51.5559L52.716 50.5474L50.1463 56.058ZM50.8309 61.7834L54.1864 54.5875L48.6758 52.0179L45.3203 59.2138L50.8309 61.7834ZM51.5231 58.7518L49.3604 57.7433L46.7908 63.2539L48.9535 64.2624L51.5231 58.7518ZM50.8386 53.0263L47.483 60.2223L52.9936 62.7919L56.3491 55.596L50.8386 53.0263ZM64.6097 58.422L62.5413 57.4575L59.9717 62.968L62.0401 63.9326L64.6097 58.422ZM62.9023 69.0304L66.0615 62.5015L60.5883 59.8531L57.4291 66.382L62.9023 69.0304ZM56.8124 69.497L58.8809 70.4615L61.4505 64.9509L59.382 63.9864L56.8124 69.497ZM58.5199 58.8886L55.3607 65.4175L60.8338 68.0659L63.9931 61.5369L58.5199 58.8886ZM73.0823 66.7532L75.245 67.7617L77.8146 62.2511L75.6519 61.2426L73.0823 66.7532ZM73.7668 72.4787L77.1224 65.2827L71.6118 62.7131L68.2563 69.909L73.7668 72.4787ZM74.4591 69.447L72.2964 68.4386L69.7267 73.9491L71.8895 74.9576L74.4591 69.447ZM73.7745 63.7216L70.419 70.9175L75.9296 73.4871L79.2851 66.2912L73.7745 63.7216Z" fill="#7ED321" mask="url(#path-42-inside-3)"/>
<path d="M87.4249 63.3026C87.0629 64.079 86.2659 64.7418 84.8903 65.1777C83.5136 65.6141 81.6698 65.7819 79.4524 65.6363C75.0252 65.3455 69.3489 63.8221 63.5036 61.0964C57.6584 58.3707 52.8426 55.0016 49.7742 51.7971C48.2374 50.1921 47.1807 48.6718 46.63 47.3367C46.0798 46.0027 46.0752 44.9661 46.4373 44.1898C46.7993 43.4134 47.5963 42.7506 48.9718 42.3146C50.3486 41.8783 52.1924 41.7105 54.4098 41.8561C58.8369 42.1468 64.5133 43.6703 70.3585 46.396C76.2038 49.1217 81.0195 52.4907 84.0879 55.6953C85.6248 57.3003 86.6814 58.8206 87.2321 60.1557C87.7824 61.4897 87.7869 62.5263 87.4249 63.3026Z" fill="white" stroke="#7ED321" stroke-width="2.22581"/>
</svg>
