<svg width="164" height="128" viewBox="0 0 164 128" fill="none" xmlns="http://www.w3.org/2000/svg">
<path d="M34 30H23" stroke="#13C1FE" stroke-width="2"/>
<path d="M100 26H89" stroke="#13C1FE" stroke-width="2"/>
<path d="M84 109.135V117" stroke="#13C1FE" stroke-width="2"/>
<path d="M40 109V117" stroke="#13C1FE" stroke-width="2"/>
<path d="M16 58H7" stroke="#13C1FE" stroke-width="2"/>
<path d="M6 57V69" stroke="#13C1FE" stroke-width="2"/>
<path d="M108 82H98.9999" stroke="#13C1FE" stroke-width="2"/>
<path d="M107 93V82" stroke="#13C1FE" stroke-width="2"/>
<path d="M115 58H108" stroke="#13C1FE" stroke-width="2"/>
<path d="M115 59V48" stroke="#13C1FE" stroke-width="2"/>
<path d="M25 88H15" stroke="#13C1FE" stroke-width="2"/>
<path d="M15 98V87" stroke="#13C1FE" stroke-width="2"/>
<path d="M62 78.0059L80.3493 85.7719L80.5 91.5" stroke="#13C1FE" stroke-width="2"/>
<path d="M99.1636 78.8602L81.0001 69.9999" stroke="#13C1FE" stroke-width="2"/>
<path d="M99.802 50.3677L94.6963 52.989" stroke="#13C1FE" stroke-width="2"/>
<path d="M62 49L75 41" stroke="#13C1FE" stroke-width="2"/>
<path d="M62 78.0059L42.5 86V91.5" stroke="#13C1FE" stroke-width="2"/>
<path d="M23.6229 78.8602L44 69.9999" stroke="#13C1FE" stroke-width="2"/>
<path d="M24.3037 50.3677L29.4094 52.989" stroke="#13C1FE" stroke-width="2"/>
<path d="M61.9999 49L47.2224 41.25" stroke="#13C1FE" stroke-width="2"/>
<path fill-rule="evenodd" clip-rule="evenodd" d="M25 51V38L33.9986 32.9981L33.4675 23.1596L46.9959 17.9739L60.6396 27.9017L63 28L75.7775 18.4483L89.5656 23V32.5L99.3771 37.9487V50.4559L108 56V75L99 79V93L90 98V107.002L75.7775 112L62 99.5L47 112L33.9986 107.002V98L24.3037 93V79.8603L15 74.647V56.5349L25 51Z" stroke="#13C1FE" stroke-width="2"/>
<path d="M62 80V17" stroke="#13C1FE" stroke-width="4"/>
<path d="M62 79V99" stroke="#13C1FE" stroke-width="2"/>
<mask id="path-24-inside-1" fill="white">
<path fill-rule="evenodd" clip-rule="evenodd" d="M67.5 13.5C67.5 16.5376 65.0376 19 62 19C58.9624 19 56.5 16.5376 56.5 13.5C56.5 10.4624 58.9624 8 62 8C65.0376 8 67.5 10.4624 67.5 13.5ZM111 26C111 29.0376 108.538 31.5 105.5 31.5C102.462 31.5 100 29.0376 100 26C100 22.9624 102.462 20.5 105.5 20.5C108.538 20.5 111 22.9624 111 26ZM24 30C24 33.0376 21.5376 35.5 18.5 35.5C15.4624 35.5 13 33.0376 13 30C13 26.9624 15.4624 24.5 18.5 24.5C21.5376 24.5 24 26.9624 24 30ZM84 127C87.0376 127 89.5 124.538 89.5 121.5C89.5 118.462 87.0376 116 84 116C80.9624 116 78.5 118.462 78.5 121.5C78.5 124.538 80.9624 127 84 127ZM45.5 121.5C45.5 124.538 43.0376 127 40 127C36.9624 127 34.5 124.538 34.5 121.5C34.5 118.462 36.9624 116 40 116C43.0376 116 45.5 118.462 45.5 121.5ZM6 79C9.03757 79 11.5 76.5376 11.5 73.5C11.5 70.4624 9.03757 68 6 68C2.96243 68 0.5 70.4624 0.5 73.5C0.5 76.5376 2.96243 79 6 79ZM112.5 98.5C112.5 101.538 110.038 104 107 104C103.962 104 101.5 101.538 101.5 98.5C101.5 95.4624 103.962 93 107 93C110.038 93 112.5 95.4624 112.5 98.5ZM114.5 49C117.538 49 120 46.5376 120 43.5C120 40.4624 117.538 38 114.5 38C111.462 38 109 40.4624 109 43.5C109 46.5376 111.462 49 114.5 49ZM15 109C18.0376 109 20.5 106.538 20.5 103.5C20.5 100.462 18.0376 98 15 98C11.9624 98 9.5 100.462 9.5 103.5C9.5 106.538 11.9624 109 15 109ZM73.9889 39.0515C73.9889 42.089 76.4513 44.5515 79.4889 44.5515C82.5264 44.5515 84.9889 42.089 84.9889 39.0515C84.9889 36.0139 82.5264 33.5515 79.4889 33.5515C76.4513 33.5515 73.9889 36.0139 73.9889 39.0515ZM89.5656 60.4559C86.5281 60.4559 84.0656 57.9935 84.0656 54.9559C84.0656 51.9183 86.5281 49.4559 89.5656 49.4559C92.6032 49.4559 95.0656 51.9183 95.0656 54.9559C95.0656 57.9935 92.6032 60.4559 89.5656 60.4559ZM72.0656 67.6471C72.0656 70.6846 74.5281 73.1471 77.5656 73.1471C80.6032 73.1471 83.0656 70.6846 83.0656 67.6471C83.0656 64.6095 80.6032 62.1471 77.5656 62.1471C74.5281 62.1471 72.0656 64.6095 72.0656 67.6471ZM80.5 100.5C77.4624 100.5 75 98.0376 75 95C75 91.9624 77.4624 89.5 80.5 89.5C83.5376 89.5 86 91.9624 86 95C86 98.0376 83.5376 100.5 80.5 100.5ZM48.0111 39.0515C48.0111 42.089 45.5487 44.5515 42.5111 44.5515C39.4736 44.5515 37.0111 42.089 37.0111 39.0515C37.0111 36.0139 39.4736 33.5515 42.5111 33.5515C45.5487 33.5515 48.0111 36.0139 48.0111 39.0515ZM33.4344 60.4559C36.4719 60.4559 38.9344 57.9935 38.9344 54.9559C38.9344 51.9183 36.4719 49.4559 33.4344 49.4559C30.3968 49.4559 27.9344 51.9183 27.9344 54.9559C27.9344 57.9935 30.3968 60.4559 33.4344 60.4559ZM52.9344 66.6471C52.9344 69.6846 50.4719 72.1471 47.4344 72.1471C44.3968 72.1471 41.9344 69.6846 41.9344 66.6471C41.9344 63.6095 44.3968 61.1471 47.4344 61.1471C50.4719 61.1471 52.9344 63.6095 52.9344 66.6471ZM42.5 100.5C45.5376 100.5 48 98.0376 48 95C48 91.9624 45.5376 89.5 42.5 89.5C39.4624 89.5 37 91.9624 37 95C37 98.0376 39.4624 100.5 42.5 100.5Z"/>
</mask>
<path d="M62 21C66.1421 21 69.5 17.6421 69.5 13.5H65.5C65.5 15.433 63.933 17 62 17V21ZM54.5 13.5C54.5 17.6421 57.8579 21 62 21V17C60.067 17 58.5 15.433 58.5 13.5H54.5ZM62 6C57.8579 6 54.5 9.35786 54.5 13.5H58.5C58.5 11.567 60.067 10 62 10V6ZM69.5 13.5C69.5 9.35786 66.1421 6 62 6V10C63.933 10 65.5 11.567 65.5 13.5H69.5ZM105.5 33.5C109.642 33.5 113 30.1421 113 26H109C109 27.933 107.433 29.5 105.5 29.5V33.5ZM98 26C98 30.1421 101.358 33.5 105.5 33.5V29.5C103.567 29.5 102 27.933 102 26H98ZM105.5 18.5C101.358 18.5 98 21.8579 98 26H102C102 24.067 103.567 22.5 105.5 22.5V18.5ZM113 26C113 21.8579 109.642 18.5 105.5 18.5V22.5C107.433 22.5 109 24.067 109 26H113ZM18.5 37.5C22.6421 37.5 26 34.1421 26 30H22C22 31.933 20.433 33.5 18.5 33.5V37.5ZM11 30C11 34.1421 14.3579 37.5 18.5 37.5V33.5C16.567 33.5 15 31.933 15 30H11ZM18.5 22.5C14.3579 22.5 11 25.8579 11 30H15C15 28.067 16.567 26.5 18.5 26.5V22.5ZM26 30C26 25.8579 22.6421 22.5 18.5 22.5V26.5C20.433 26.5 22 28.067 22 30H26ZM87.5 121.5C87.5 123.433 85.933 125 84 125V129C88.1421 129 91.5 125.642 91.5 121.5H87.5ZM84 118C85.933 118 87.5 119.567 87.5 121.5H91.5C91.5 117.358 88.1421 114 84 114V118ZM80.5 121.5C80.5 119.567 82.067 118 84 118V114C79.8579 114 76.5 117.358 76.5 121.5H80.5ZM84 125C82.067 125 80.5 123.433 80.5 121.5H76.5C76.5 125.642 79.8579 129 84 129V125ZM40 129C44.1421 129 47.5 125.642 47.5 121.5H43.5C43.5 123.433 41.933 125 40 125V129ZM32.5 121.5C32.5 125.642 35.8579 129 40 129V125C38.067 125 36.5 123.433 36.5 121.5H32.5ZM40 114C35.8579 114 32.5 117.358 32.5 121.5H36.5C36.5 119.567 38.067 118 40 118V114ZM47.5 121.5C47.5 117.358 44.1421 114 40 114V118C41.933 118 43.5 119.567 43.5 121.5H47.5ZM9.5 73.5C9.5 75.433 7.933 77 6 77V81C10.1421 81 13.5 77.6421 13.5 73.5H9.5ZM6 70C7.933 70 9.5 71.567 9.5 73.5H13.5C13.5 69.3579 10.1421 66 6 66V70ZM2.5 73.5C2.5 71.567 4.067 70 6 70V66C1.85786 66 -1.5 69.3579 -1.5 73.5H2.5ZM6 77C4.067 77 2.5 75.433 2.5 73.5H-1.5C-1.5 77.6421 1.85786 81 6 81V77ZM107 106C111.142 106 114.5 102.642 114.5 98.5H110.5C110.5 100.433 108.933 102 107 102V106ZM99.5 98.5C99.5 102.642 102.858 106 107 106V102C105.067 102 103.5 100.433 103.5 98.5H99.5ZM107 91C102.858 91 99.5 94.3579 99.5 98.5H103.5C103.5 96.567 105.067 95 107 95V91ZM114.5 98.5C114.5 94.3579 111.142 91 107 91V95C108.933 95 110.5 96.567 110.5 98.5H114.5ZM118 43.5C118 45.433 116.433 47 114.5 47V51C118.642 51 122 47.6421 122 43.5H118ZM114.5 40C116.433 40 118 41.567 118 43.5H122C122 39.3579 118.642 36 114.5 36V40ZM111 43.5C111 41.567 112.567 40 114.5 40V36C110.358 36 107 39.3579 107 43.5H111ZM114.5 47C112.567 47 111 45.433 111 43.5H107C107 47.6421 110.358 51 114.5 51V47ZM18.5 103.5C18.5 105.433 16.933 107 15 107V111C19.1421 111 22.5 107.642 22.5 103.5H18.5ZM15 100C16.933 100 18.5 101.567 18.5 103.5H22.5C22.5 99.3579 19.1421 96 15 96V100ZM11.5 103.5C11.5 101.567 13.067 100 15 100V96C10.8579 96 7.5 99.3579 7.5 103.5H11.5ZM15 107C13.067 107 11.5 105.433 11.5 103.5H7.5C7.5 107.642 10.8579 111 15 111V107ZM79.4889 42.5515C77.5559 42.5515 75.9889 40.9845 75.9889 39.0515H71.9889C71.9889 43.1936 75.3467 46.5515 79.4889 46.5515V42.5515ZM82.9889 39.0515C82.9889 40.9845 81.4219 42.5515 79.4889 42.5515V46.5515C83.631 46.5515 86.9889 43.1936 86.9889 39.0515H82.9889ZM79.4889 35.5515C81.4219 35.5515 82.9889 37.1185 82.9889 39.0515H86.9889C86.9889 34.9093 83.631 31.5515 79.4889 31.5515V35.5515ZM75.9889 39.0515C75.9889 37.1185 77.5559 35.5515 79.4889 35.5515V31.5515C75.3467 31.5515 71.9889 34.9093 71.9889 39.0515H75.9889ZM82.0656 54.9559C82.0656 59.098 85.4235 62.4559 89.5656 62.4559V58.4559C87.6326 58.4559 86.0656 56.8889 86.0656 54.9559H82.0656ZM89.5656 47.4559C85.4235 47.4559 82.0656 50.8137 82.0656 54.9559H86.0656C86.0656 53.0229 87.6326 51.4559 89.5656 51.4559V47.4559ZM97.0656 54.9559C97.0656 50.8137 93.7078 47.4559 89.5656 47.4559V51.4559C91.4986 51.4559 93.0656 53.0229 93.0656 54.9559H97.0656ZM89.5656 62.4559C93.7078 62.4559 97.0656 59.098 97.0656 54.9559H93.0656C93.0656 56.8889 91.4986 58.4559 89.5656 58.4559V62.4559ZM77.5656 71.1471C75.6326 71.1471 74.0656 69.5801 74.0656 67.6471H70.0656C70.0656 71.7892 73.4235 75.1471 77.5656 75.1471V71.1471ZM81.0656 67.6471C81.0656 69.5801 79.4986 71.1471 77.5656 71.1471V75.1471C81.7078 75.1471 85.0656 71.7892 85.0656 67.6471H81.0656ZM77.5656 64.1471C79.4986 64.1471 81.0656 65.7141 81.0656 67.6471H85.0656C85.0656 63.5049 81.7078 60.1471 77.5656 60.1471V64.1471ZM74.0656 67.6471C74.0656 65.7141 75.6326 64.1471 77.5656 64.1471V60.1471C73.4235 60.1471 70.0656 63.5049 70.0656 67.6471H74.0656ZM73 95C73 99.1421 76.3579 102.5 80.5 102.5V98.5C78.567 98.5 77 96.933 77 95H73ZM80.5 87.5C76.3579 87.5 73 90.8579 73 95H77C77 93.067 78.567 91.5 80.5 91.5V87.5ZM88 95C88 90.8579 84.6421 87.5 80.5 87.5V91.5C82.433 91.5 84 93.067 84 95H88ZM80.5 102.5C84.6421 102.5 88 99.1421 88 95H84C84 96.933 82.433 98.5 80.5 98.5V102.5ZM42.5111 46.5515C46.6533 46.5515 50.0111 43.1936 50.0111 39.0515H46.0111C46.0111 40.9845 44.4441 42.5515 42.5111 42.5515V46.5515ZM35.0111 39.0515C35.0111 43.1936 38.369 46.5515 42.5111 46.5515V42.5515C40.5781 42.5515 39.0111 40.9845 39.0111 39.0515H35.0111ZM42.5111 31.5515C38.369 31.5515 35.0111 34.9093 35.0111 39.0515H39.0111C39.0111 37.1185 40.5781 35.5515 42.5111 35.5515V31.5515ZM50.0111 39.0515C50.0111 34.9093 46.6533 31.5515 42.5111 31.5515V35.5515C44.4441 35.5515 46.0111 37.1185 46.0111 39.0515H50.0111ZM36.9344 54.9559C36.9344 56.8889 35.3674 58.4559 33.4344 58.4559V62.4559C37.5765 62.4559 40.9344 59.098 40.9344 54.9559H36.9344ZM33.4344 51.4559C35.3674 51.4559 36.9344 53.0229 36.9344 54.9559H40.9344C40.9344 50.8137 37.5765 47.4559 33.4344 47.4559V51.4559ZM29.9344 54.9559C29.9344 53.0229 31.5014 51.4559 33.4344 51.4559V47.4559C29.2922 47.4559 25.9344 50.8137 25.9344 54.9559H29.9344ZM33.4344 58.4559C31.5014 58.4559 29.9344 56.8889 29.9344 54.9559H25.9344C25.9344 59.098 29.2922 62.4559 33.4344 62.4559V58.4559ZM47.4344 74.1471C51.5765 74.1471 54.9344 70.7892 54.9344 66.6471H50.9344C50.9344 68.5801 49.3674 70.1471 47.4344 70.1471V74.1471ZM39.9344 66.6471C39.9344 70.7892 43.2922 74.1471 47.4344 74.1471V70.1471C45.5014 70.1471 43.9344 68.5801 43.9344 66.6471H39.9344ZM47.4344 59.1471C43.2922 59.1471 39.9344 62.5049 39.9344 66.6471H43.9344C43.9344 64.7141 45.5014 63.1471 47.4344 63.1471V59.1471ZM54.9344 66.6471C54.9344 62.5049 51.5765 59.1471 47.4344 59.1471V63.1471C49.3674 63.1471 50.9344 64.7141 50.9344 66.6471H54.9344ZM46 95C46 96.933 44.433 98.5 42.5 98.5V102.5C46.6421 102.5 50 99.1421 50 95H46ZM42.5 91.5C44.433 91.5 46 93.067 46 95H50C50 90.8579 46.6421 87.5 42.5 87.5V91.5ZM39 95C39 93.067 40.567 91.5 42.5 91.5V87.5C38.3579 87.5 35 90.8579 35 95H39ZM42.5 98.5C40.567 98.5 39 96.933 39 95H35C35 99.1421 38.3579 102.5 42.5 102.5V98.5Z" fill="#7ED321" mask="url(#path-24-inside-1)"/>
</svg>
