<svg xmlns="http://www.w3.org/2000/svg" xmlns:xlink="http://www.w3.org/1999/xlink" width="24" height="24" viewBox="0 0 24 24">
    <defs>
        <path id="a" d="M15.788 5.941c0 .7-1.938 2.276-1.938 2.276L0 8.012V0h6.65l-.12.182s2.986 3.119 5.515 4.62c2.528 1.503 1.805.854 1.805.854v-.569s1.938.153 1.938.854z"/>
        <path id="c" d="M1.582.881l.721.655.668 1.234 3.607.577 2.656.128 2.551-.189L14.383.882 15.58.446l1.37 3.97-3.523 2.854-5.795.51-3.89-.494-2.06-.878L.528 4.83V1.536L1.23.664l.352.217z"/>
    </defs>
    <g fill="none" fill-rule="evenodd">
        <path d="M24.297 12.5c0 6.903-5.663 12.5-12.648 12.5C4.663 25-1 19.403-1 12.5S4.663 0 11.649 0c6.985 0 12.648 5.597 12.648 12.5z"/>
        <g transform="translate(.629 8.396)">
            <mask id="b" fill="#fff">
                <use xlink:href="#a"/>
            </mask>
            <path fill="#13C1FE" d="M8.912 5.008v2.504h-.703V5.008h.703zm-4.216 0V7.01h-.703V5.008h.703zm7.73-.501V7.01h-.703V4.507h.702zM1.322 3.005l.06 2.037L.4 5.008l.08-2.003h.843z" mask="url(#b)" opacity=".6"/>
            <ellipse cx="8.209" cy="3.005" stroke="#15C2FF" mask="url(#b)" rx="7.23" ry="2.505"/>
            <path stroke="#15C2FF" d="M.901 5.008c0 1.66 3.054 2.701 7.323 2.701s7.715-1.36 7.715-3.02" mask="url(#b)"/>
        </g>
        <g transform="translate(.581 13.655)">
            <mask id="d" fill="#fff">
                <use xlink:href="#c"/>
            </mask>
            <path fill="#13C1FE" d="M8.96 4.074v2.504h-.703V4.074h.702zm-4.217 0v2.004h-.702V4.074h.702zm7.73-.5v2.504h-.703V4.074l.703-.5zm3.513-1.503L16.048 4l-1.017.638.112-2.07.843-.497zm-15.459 0l.843.743.138 1.3-.981-.04V2.071z" mask="url(#d)" opacity=".6"/>
            <ellipse cx="8.257" cy="2.071" stroke="#15C2FF" mask="url(#d)" rx="7.23" ry="2.505"/>
            <path stroke="#15C2FF" d="M1.036 4.074c0 1.66 2.952 2.701 7.22 2.701 4.27 0 7.309-1.116 7.309-2.775" mask="url(#d)"/>
        </g>
        <g transform="rotate(25 .026 21.462)">
            <path fill="#13C1FE" d="M8.617 5.592l-.04 2.514h-.804l.05-2.388.794-.126zm-4.42-.084v2.204h-.844V5.508h.843zm8.942 0v2.204h-.844V5.508h.844zm3.627-2.203l-.093 2.366-1.028.361.053-2.451 1.068-.276zM0 3.305l1.076.305-.091 2.38L0 5.508V3.305z" opacity=".6"/>
            <ellipse cx="8.383" cy="3.305" stroke="#15C2FF" rx="7.883" ry="2.805"/>
            <path stroke="#15C2FF" d="M.503 5.395C.503 7.221 3.66 8.36 8.29 8.36c4.63 0 7.881-1.216 7.881-3.04"/>
        </g>
    </g>
</svg>
