<svg xmlns="http://www.w3.org/2000/svg" width="36" height="36" viewBox="0 0 36 36">
    <g fill="none" fill-rule="evenodd">
        <g stroke="#13C1FE">
            <path d="M28.5 18c0 5.799-4.701 10.5-10.5 10.5S7.5 23.799 7.5 18 12.201 7.5 18 7.5 28.5 12.201 28.5 18z"/>
            <path stroke-width="2" d="M31.31 17.905c0 7.403-6.002 13.404-13.405 13.404C10.5 31.31 4.5 25.308 4.5 17.905 4.5 10.5 10.502 4.5 17.905 4.5s13.404 6.002 13.404 13.405z"/>
            <path stroke-width="2" d="M18 14v4l4.405 4.405"/>
            <path d="M17.952 9L18 12M27 18h-3M18 27v-3M9 18h3"/>
        </g>
    </g>
</svg>
